<svg width="46" height="44" viewBox="0 0 46 44" fill="none" xmlns="http://www.w3.org/2000/svg">
<path d="M4.50984 5.31367H41.4902V27.8627H4.50984V5.31367Z" fill="#D1D1D2"/>
<path d="M42.3922 0.803894H3.60784C1.61848 0.803894 0 2.42237 0 4.41174V32.3725C0 34.3619 1.61848 35.9804 3.60784 35.9804H18.0392V41.3921H15.2431C14.745 41.3921 14.3412 41.7959 14.3412 42.2941C14.3412 42.7922 14.745 43.196 15.2431 43.196H30.6667C31.1647 43.196 31.5686 42.7922 31.5686 42.2941C31.5686 41.7959 31.1647 41.3921 30.6667 41.3921H27.9608V35.9804H42.3922C44.3815 35.9804 46 34.3619 46 32.3725V4.41174C46 2.42237 44.3815 0.803894 42.3922 0.803894ZM26.1569 41.3921H19.8431V35.9804H26.1569V41.3921ZM44.1961 32.3725C44.1961 33.3672 43.3868 34.1764 42.3922 34.1764C41.0022 34.1764 5.47941 34.1764 3.60784 34.1764C2.61316 34.1764 1.80392 33.3672 1.80392 32.3725V4.41174C1.80392 3.41705 2.61316 2.60782 3.60784 2.60782H42.3922C43.3868 2.60782 44.1961 3.41705 44.1961 4.41174V32.3725Z" fill="#D1D1D2"/>
<path d="M23.451 30.5686H22.5491C22.0509 30.5686 21.6471 30.9724 21.6471 31.4706C21.6471 31.9687 22.0509 32.3725 22.5491 32.3725H23.451C23.9491 32.3725 24.353 31.9687 24.353 31.4706C24.353 30.9724 23.9491 30.5686 23.451 30.5686Z" fill="#D1D1D2"/>
<path d="M32.918 13.5501L23.4474 8.13836C23.1701 7.97988 22.8297 7.97988 22.5524 8.13836L13.0819 13.5501C12.477 13.8958 12.4765 14.7704 13.0819 15.1164L15.6574 16.5882L13.0819 18.0599C12.477 18.4057 12.4765 19.2802 13.0819 19.6262L22.5524 25.038C22.8296 25.1963 23.1701 25.1964 23.4474 25.038L32.918 19.6262C33.5229 19.2806 33.5234 18.4059 32.918 18.0599L30.3423 16.5882L32.9179 15.1165C33.5229 14.7708 33.5234 13.8962 32.918 13.5501ZM30.6526 18.8431L22.9999 23.216L15.3473 18.8431L17.4754 17.6271L22.5524 20.5282C22.8296 20.6866 23.1701 20.6867 23.4474 20.5282L28.5244 17.6271L30.6526 18.8431ZM22.9999 18.7062L15.3473 14.3333L22.9999 9.96041L30.6526 14.3333L22.9999 18.7062Z" fill="#D1D1D2"/>
</svg>
