<svg width="20" height="21" viewBox="0 0 20 21" fill="none" xmlns="http://www.w3.org/2000/svg">
<path d="M6.25 10.3749H11.875C12.7038 10.3749 13.4987 10.7041 14.0847 11.2902C14.6708 11.8762 15 12.6711 15 13.4999C15 14.3287 14.6708 15.1236 14.0847 15.7096C13.4987 16.2957 12.7038 16.6249 11.875 16.6249L6.24954 16.6245V4.74951L10.9375 4.74989C11.6834 4.74989 12.3988 5.04621 12.9262 5.57366C13.4537 6.1011 13.75 6.81647 13.75 7.56239C13.75 8.30831 13.4537 9.02368 12.9262 9.55113C12.3988 10.0786 11.6834 10.3749 10.9375 10.3749" stroke="#18181F" stroke-width="2" stroke-linecap="round" stroke-linejoin="round"/>
<path d="M4.99954 4.74951H6.24954" stroke="#18181F" stroke-width="2" stroke-linecap="round" stroke-linejoin="round"/>
<path d="M4.99954 16.6245H6.24954" stroke="#18181F" stroke-width="2" stroke-linecap="round" stroke-linejoin="round"/>
<path d="M8.18182 4.63621V1.90894" stroke="#18181F" stroke-width="2" stroke-linecap="round" stroke-linejoin="round"/>
<path d="M10.9091 4.63621V1.90894" stroke="#18181F" stroke-width="2" stroke-linecap="round" stroke-linejoin="round"/>
<path d="M8.18182 19.182V17.3638" stroke="#18181F" stroke-width="2" stroke-linecap="round" stroke-linejoin="round"/>
<path d="M10.9091 19.182V17.3638" stroke="#18181F" stroke-width="2" stroke-linecap="round" stroke-linejoin="round"/>
</svg>
