<svg width="50" height="50" viewBox="0 0 50 50" fill="none" xmlns="http://www.w3.org/2000/svg">
<path fill-rule="evenodd" clip-rule="evenodd" d="M7.66602 14.2578H42.334V27.9295H7.66602V14.2578Z" fill="#008F67"/>
<path d="M47.0703 4.49219H2.92969C1.31426 4.49219 0 5.80645 0 7.42188V42.5781C0 44.1936 1.31426 45.5078 2.92969 45.5078H47.0703C48.6857 45.5078 50 44.1936 50 42.5781V7.42188C50 5.80645 48.6857 4.49219 47.0703 4.49219ZM2.92969 6.44531H47.0703C47.6088 6.44531 48.0469 6.8834 48.0469 7.42188V8.88672H1.95312V7.42188C1.95312 6.8834 2.39121 6.44531 2.92969 6.44531ZM47.0703 43.5547H2.92969C2.39121 43.5547 1.95312 43.1166 1.95312 42.5781V10.8398H48.0469V42.5781C48.0469 43.1166 47.6088 43.5547 47.0703 43.5547Z" fill="#D5EFE9"/>
<path d="M12.9768 24.1336C13.0229 24.5391 13.3162 24.8732 13.7124 24.9713C14.1086 25.0693 14.5241 24.9107 14.7539 24.5735L15.9446 22.8273L17.1353 24.5735C17.6381 25.3184 18.8171 25.022 18.9124 24.1336L19.5783 18.2742C19.6392 17.7384 19.2541 17.2546 18.7182 17.1936C18.1819 17.1322 17.6986 17.5178 17.6376 18.0537L17.2685 21.302L16.7514 20.5436C16.3913 19.9818 15.4978 19.9819 15.1377 20.5436L14.6207 21.3019L14.2516 18.0537C14.1907 17.5178 13.7071 17.133 13.171 17.1936C12.6351 17.2546 12.25 17.7384 12.311 18.2742L12.9768 24.1336Z" fill="#D5EFE9"/>
<path d="M27.2322 24.9713C27.6283 24.8732 27.9218 24.5391 27.9678 24.1336L28.6336 18.2742C28.6946 17.7384 28.3095 17.2546 27.7736 17.1936C27.237 17.1322 26.7539 17.5178 26.693 18.0537L26.3239 21.3019L25.8069 20.5436C25.4468 19.9818 24.5533 19.9819 24.1932 20.5436L23.6762 21.3019L23.3071 18.0537C23.2461 17.5178 22.7625 17.133 22.2265 17.1936C21.6906 17.2546 21.3055 17.7384 21.3664 18.2742L22.0323 24.1336C22.0784 24.5391 22.3717 24.8732 22.7679 24.9713C23.1641 25.0693 23.5795 24.9107 23.8094 24.5735L25 22.8272L26.1907 24.5734C26.4203 24.9124 26.8426 25.0692 27.2322 24.9713Z" fill="#D5EFE9"/>
<path d="M31.0874 24.1336C31.183 25.0225 32.3621 25.3181 32.8646 24.5735L34.0553 22.8273L35.2459 24.5735C35.4758 24.9107 35.8913 25.0693 36.2874 24.9713C36.6836 24.8732 36.9771 24.5391 37.0231 24.1336L37.6889 18.2742C37.7498 17.7384 37.3648 17.2546 36.8289 17.1936C36.2922 17.1322 35.8092 17.5178 35.7483 18.0537L35.3791 21.3019L34.8622 20.5436C34.5021 19.9818 33.6085 19.9819 33.2485 20.5436L32.7314 21.302L32.3623 18.0537C32.3013 17.5178 31.8177 17.133 31.2817 17.1936C30.7457 17.2546 30.3607 17.7384 30.4216 18.2742L31.0874 24.1336Z" fill="#D5EFE9"/>
<path d="M22.5583 31.022H7.66576C6.37142 31.0701 6.3724 32.9276 7.66576 32.9752H22.5583C23.8527 32.9271 23.8517 31.0695 22.5583 31.022Z" fill="#D5EFE9"/>
<path d="M22.5583 35.0911H7.66576C6.37142 35.1392 6.3724 36.9967 7.66576 37.0443H22.5583C23.8527 36.9962 23.8517 35.1386 22.5583 35.0911Z" fill="#D5EFE9"/>
<path d="M22.5583 39.1602H7.66576C6.37142 39.2082 6.3724 41.0657 7.66576 41.1133H22.5583C23.8527 41.0652 23.8517 39.2076 22.5583 39.1602Z" fill="#D5EFE9"/>
<path d="M42.3338 31.022H27.4412C26.1469 31.0701 26.1479 32.9276 27.4412 32.9752H42.3338C43.6281 32.9271 43.6271 31.0695 42.3338 31.022Z" fill="#D5EFE9"/>
<path d="M42.3338 35.0911H27.4412C26.1469 35.1392 26.1479 36.9967 27.4412 37.0443H42.3338C43.6281 36.9962 43.6271 35.1386 42.3338 35.0911Z" fill="#D5EFE9"/>
<path d="M42.3338 39.1602H27.4412C26.1469 39.2082 26.1479 41.0657 27.4412 41.1133H42.3338C43.6281 41.0652 43.6271 39.2076 42.3338 39.1602Z" fill="#D5EFE9"/>
</svg>
