<svg width="50" height="50" viewBox="0 0 50 50" fill="none" xmlns="http://www.w3.org/2000/svg">
<g clip-path="url(#clip0_101_1972)">
<path d="M49.0234 27.8936V32.2432C49.0234 34.1885 47.4424 35.7666 45.4932 35.7666H4.50684C2.55762 35.7666 0.976562 34.1885 0.976562 32.2432V27.8936H49.0234Z" fill="#008F67"/>
<path d="M45.1017 30.875C44.5786 30.875 44.1252 31.3308 44.1252 31.8515C44.1252 32.3691 44.5627 32.8281 45.1017 32.8281C45.6342 32.8281 46.0782 32.384 46.0783 31.8516C46.0784 31.3442 45.6294 30.8751 45.1017 30.875Z" fill="#D5EFE9"/>
<path d="M45.4932 2.49023H4.50684C2.02178 2.49023 0 4.50889 0 6.99023V32.2432C0 34.7245 2.02178 36.7432 4.50684 36.7432H20.8644L18.0602 41.6415H17.6458C14.9446 41.6415 12.7472 43.8359 12.7472 46.5332C12.7472 47.0726 13.1844 47.5098 13.7237 47.5098H36.2782C36.8438 47.5098 37.2924 47.0305 37.2523 46.4637C37.2149 43.7983 35.032 41.6416 32.3542 41.6416H31.9398L29.1356 36.7433H45.4932C47.9782 36.7433 50 34.7246 50 32.2433V6.99023C50 4.50889 47.9782 2.49023 45.4932 2.49023ZM32.3542 43.5946C33.6354 43.5946 34.7281 44.4148 35.1325 45.5566H14.8675C15.2719 44.4149 16.3646 43.5946 17.6458 43.5946H32.3542ZM29.6893 41.6415H20.3107L23.1149 36.7432H26.8851L29.6893 41.6415ZM48.0469 32.2432C48.0469 33.6476 46.9013 34.79 45.4932 34.79H4.50684C3.09873 34.79 1.95312 33.6476 1.95312 32.2432V6.99023C1.95312 5.58584 3.09873 4.44336 4.50684 4.44336H45.4932C46.9013 4.44336 48.0469 5.58584 48.0469 6.99023V32.2432Z" fill="#D5EFE9"/>
<path d="M29.4126 30.8749H20.5877C20.0484 30.8749 19.6111 31.3121 19.6111 31.8515C19.6111 32.3908 20.0484 32.828 20.5877 32.828H29.4126C29.952 32.828 30.3892 32.3908 30.3892 31.8515C30.3892 31.3121 29.9519 30.8749 29.4126 30.8749Z" fill="#D5EFE9"/>
<path d="M41.1788 30.875C40.6465 30.875 40.2023 31.3191 40.2022 31.8514C40.2021 32.3757 40.6564 32.8281 41.1787 32.8281C41.6918 32.8282 42.1554 32.3862 42.1554 31.8515C42.1554 31.3342 41.7174 30.875 41.1788 30.875Z" fill="#D5EFE9"/>
<path d="M24.5057 22.0167V13.1697C24.5057 11.5543 23.1914 10.24 21.576 10.24H19.6029V8.68229C19.6029 7.3775 18.5417 6.31598 17.2372 6.31598H11.1904C9.88604 6.31598 8.82471 7.3775 8.82471 8.68229V10.24H6.85176C5.23633 10.24 3.92207 11.5543 3.92207 13.1697V22.0167C3.92207 23.6321 5.23633 24.9464 6.85176 24.9464H21.576C23.1914 24.9464 24.5057 23.6321 24.5057 22.0167ZM10.7779 8.68229C10.7779 8.45446 10.963 8.2691 11.1905 8.2691H17.2373C17.4648 8.2691 17.6499 8.45446 17.6499 8.68229V10.24H10.778V8.68229H10.7779ZM5.8752 13.1697C5.8752 12.6312 6.31328 12.1931 6.85176 12.1931H21.576C22.1145 12.1931 22.5525 12.6312 22.5525 13.1697V16.126H15.1904V15.1406C15.1904 14.6012 14.7532 14.164 14.2139 14.164C13.6745 14.164 13.2373 14.6012 13.2373 15.1406V16.126H5.8752V13.1697ZM5.8752 22.0167V18.0793H13.2373V19.0647C13.2373 19.6041 13.6745 20.0413 14.2139 20.0413C14.7532 20.0413 15.1904 19.6041 15.1904 19.0647V18.0793H22.5525V22.0167C22.5525 22.5551 22.1145 22.9932 21.576 22.9932H6.85176C6.31328 22.9932 5.8752 22.5551 5.8752 22.0167Z" fill="#D5EFE9"/>
<path d="M33.3345 9.25021H44.1205C44.6599 9.25021 45.0971 8.81301 45.0971 8.27365C45.0971 7.7343 44.6599 7.29709 44.1205 7.29709H33.3345C32.7951 7.29709 32.3579 7.7343 32.3579 8.27365C32.3579 8.81301 32.7951 9.25021 33.3345 9.25021Z" fill="#D5EFE9"/>
<path d="M28.4315 9.25003C28.9593 9.25003 29.408 8.79857 29.4081 8.27357C29.4082 7.74192 28.9627 7.297 28.4316 7.29691C27.9222 7.29681 27.455 7.74046 27.455 8.27337C27.4549 8.78265 27.8996 9.24993 28.4315 9.25003Z" fill="#D5EFE9"/>
<path d="M33.3345 14.1552H44.1205C44.6599 14.1552 45.0971 13.718 45.0971 13.1787C45.0971 12.6393 44.6599 12.2021 44.1205 12.2021H33.3345C32.7951 12.2021 32.3579 12.6393 32.3579 13.1787C32.3579 13.718 32.7951 14.1552 33.3345 14.1552Z" fill="#D5EFE9"/>
<path d="M28.4315 14.1553C28.9649 14.1553 29.408 13.7122 29.4081 13.1788C29.4082 12.6702 28.9626 12.2022 28.4316 12.2021C27.9225 12.202 27.455 12.6478 27.455 13.1786C27.455 13.7103 27.9007 14.1552 28.4315 14.1553Z" fill="#D5EFE9"/>
<path d="M33.3345 19.0604H44.1205C44.6599 19.0604 45.0971 18.6232 45.0971 18.0838C45.0971 17.5444 44.6599 17.1072 44.1205 17.1072H33.3345C32.7951 17.1072 32.3579 17.5444 32.3579 18.0838C32.3579 18.6232 32.7951 19.0604 33.3345 19.0604Z" fill="#D5EFE9"/>
<path d="M28.4315 19.0605C28.963 19.0605 29.408 18.6143 29.4081 18.0841C29.4082 17.5508 28.964 17.1075 28.4316 17.1074C27.8988 17.1074 27.4551 17.5512 27.455 18.0839C27.4549 18.5939 27.8993 19.0604 28.4315 19.0605Z" fill="#D5EFE9"/>
<path d="M45.0971 22.9889C45.0971 22.4495 44.6599 22.0123 44.1205 22.0123H33.3345C32.7951 22.0123 32.3579 22.4495 32.3579 22.9889C32.3579 23.5282 32.7951 23.9654 33.3345 23.9654H44.1205C44.6599 23.9654 45.0971 23.5282 45.0971 22.9889Z" fill="#D5EFE9"/>
<path d="M28.4315 23.9658C28.9539 23.9658 29.408 23.5092 29.4081 22.9894C29.4082 22.459 28.9592 22.0128 28.4316 22.0127C27.8983 22.0127 27.4551 22.4553 27.455 22.9891C27.4549 23.505 27.8905 23.9657 28.4315 23.9658Z" fill="#D5EFE9"/>
</g>
<defs>
<clipPath id="clip0_101_1972">
<rect width="50" height="50" fill="white"/>
</clipPath>
</defs>
</svg>
