<svg width="20" height="21" viewBox="0 0 20 21" fill="none" xmlns="http://www.w3.org/2000/svg">
<path d="M20 10.2002C20 4.67676 15.5234 0.200195 10 0.200195C4.47656 0.200195 0 4.67676 0 10.2002C0 15.7236 4.47656 20.2002 10 20.2002C10.0586 20.2002 10.1172 20.2002 10.1758 20.1963V12.415H8.02734V9.91113H10.1758V8.06738C10.1758 5.93066 11.4805 4.7666 13.3867 4.7666C14.3008 4.7666 15.0859 4.83301 15.3125 4.86426V7.09863H14C12.9648 7.09863 12.7617 7.59082 12.7617 8.31348V9.90723H15.2422L14.918 12.4111H12.7617V19.8135C16.9414 18.6143 20 14.7666 20 10.2002Z" fill="white"/>
</svg>
