<svg width="50" height="50" viewBox="0 0 50 50" fill="none" xmlns="http://www.w3.org/2000/svg">
<path d="M25.4902 36.2744H24.5098C23.9683 36.2744 23.5294 36.7133 23.5294 37.2548C23.5294 37.7962 23.9683 38.2352 24.5098 38.2352H25.4902C26.0316 38.2352 26.4706 37.7962 26.4706 37.2548C26.4706 36.7133 26.0316 36.2744 25.4902 36.2744Z" fill="#D5EFE9"/>
<path d="M46.0784 3.92142H28.6528L25.7609 0.362003C25.3685 -0.120938 24.6309 -0.120154 24.2392 0.362003L21.3471 3.92142H3.92157C1.75922 3.92142 0 5.68063 0 7.84298V38.2351C0 40.3975 1.75922 42.1567 3.92157 42.1567H19.6078V48.0391H16.5686C16.0272 48.0391 15.5882 48.478 15.5882 49.0195C15.5882 49.5609 16.0272 49.9999 16.5686 49.9999H33.3333C33.8747 49.9999 34.3137 49.5609 34.3137 49.0195C34.3137 48.478 33.8747 48.0391 33.3333 48.0391H30.3922V42.1567H46.0784C48.2408 42.1567 50 40.3975 50 38.2351V7.84298C50 5.68063 48.2408 3.92142 46.0784 3.92142ZM30.3922 13.3792C28.6323 12.2762 26.3381 12.6429 25 14.2307C23.6603 12.6409 21.3654 12.2777 19.6078 13.3792V9.17142L21.7144 6.57867C23.5768 8.26573 26.4258 8.26338 28.2856 6.57867L30.3922 9.17142V13.3792ZM19.6078 24.5097V16.9116C19.6078 15.6952 20.5975 14.7057 21.8137 14.7057C23.03 14.7057 24.0196 15.6952 24.0196 16.9116V24.5097H19.6078ZM25.9804 16.9116C25.9804 15.6952 26.97 14.7057 28.1863 14.7057C29.4025 14.7057 30.3922 15.6952 30.3922 16.9116V24.5097H25.9804V16.9116ZM25 2.53494L27.0461 5.05318C25.9066 6.15985 24.0913 6.15759 22.954 5.05318L25 2.53494ZM28.4314 48.0391H21.5686V42.1567H28.4314V48.0391ZM48.0392 38.2351C48.0392 39.3163 47.1596 40.1959 46.0784 40.1959C44.0392 40.1959 5.40775 40.1959 3.92157 40.1959C2.84039 40.1959 1.96078 39.3163 1.96078 38.2351V7.84298C1.96078 6.76181 2.84039 5.8822 3.92157 5.8822H19.7539L17.8666 8.20514C17.7246 8.37994 17.6471 8.59818 17.6471 8.82338V16.9116V25.49C17.6471 26.0315 18.086 26.4704 18.6275 26.4704H31.3725C31.9139 26.4704 32.3529 26.0315 32.3529 25.49C32.3529 23.4459 32.3529 10.6555 32.3529 8.82338C32.3529 8.59818 32.2754 8.37994 32.1334 8.20514L30.2461 5.8822H46.0784C47.1596 5.8822 48.0392 6.76181 48.0392 7.84298V38.2351Z" fill="#D5EFE9"/>
<path d="M41.1765 28.4312H8.82353C8.28216 28.4312 7.84314 28.8702 7.84314 29.4116C7.84314 29.9531 8.28216 30.392 8.82353 30.392H41.1765C41.7178 30.392 42.1569 29.9531 42.1569 29.4116C42.1569 28.8702 41.7178 28.4312 41.1765 28.4312Z" fill="#D5EFE9"/>
</svg>
