<svg width="50" height="48" viewBox="0 0 50 48" fill="none" xmlns="http://www.w3.org/2000/svg">
<path d="M35.1065 42.2617C40.4195 42.2617 44.7266 37.9546 44.7266 32.6416C44.7266 27.3286 40.4195 23.0215 35.1065 23.0215C29.7935 23.0215 25.4864 27.3286 25.4864 32.6416C25.4864 37.9546 29.7935 42.2617 35.1065 42.2617Z" fill="#008F67"/>
<path d="M35.1064 17.748C35.0218 17.748 34.9372 17.7488 34.8528 17.7502V10.7233C34.8528 7.77314 32.4526 5.37295 29.5024 5.37295H23.0979V3.14053C23.0979 1.66514 21.8975 0.464844 20.4222 0.464844H14.4307C12.9553 0.464844 11.755 1.66523 11.755 3.14053V5.37305H5.35039C2.4002 5.37305 0 7.77324 0 10.7234V29.5393C0 32.4895 2.4002 34.8896 5.35039 34.8896H20.3823C21.4693 42.0393 27.6582 47.5352 35.1064 47.5352C43.3187 47.5352 50 40.8539 50 32.6416C50 24.4293 43.3187 17.748 35.1064 17.748ZM13.7081 3.14053C13.7081 2.74209 14.0322 2.41797 14.4307 2.41797H20.4222C20.8206 2.41797 21.1447 2.74209 21.1447 3.14053V5.35518H13.7081V3.14053ZM1.95312 10.7234C1.95312 8.85019 3.47715 7.32617 5.35039 7.32617H29.5024C31.3758 7.32617 32.8997 8.85019 32.8997 10.7234V17.9112C30.8495 18.217 28.9345 18.9422 27.2449 19.9964V18.7218C27.2449 16.9836 25.8309 15.5694 24.0926 15.5694C22.3543 15.5694 20.9402 16.9835 20.9402 18.7218V19.8425H13.9126V18.7218C13.9126 16.9836 12.4984 15.5694 10.7603 15.5694C9.02207 15.5694 7.60791 16.9835 7.60791 18.7218V19.8425H5.35039C3.47715 19.8425 1.95312 18.3185 1.95312 16.4452V10.7234ZM23.194 23.7117C23.0046 23.4975 22.8934 23.2171 22.8934 22.9163V18.7218C22.8934 18.0605 23.4313 17.5226 24.0926 17.5226C24.7538 17.5226 25.2918 18.0605 25.2918 18.7218V21.4482C24.5175 22.1281 23.8141 22.8868 23.194 23.7117ZM11.9595 18.7218V22.9163C11.9595 23.5775 11.4215 24.1155 10.7603 24.1155C10.099 24.1155 9.56104 23.5775 9.56104 22.9163V18.7218C9.56104 18.0605 10.099 17.5226 10.7603 17.5226C11.4215 17.5226 11.9595 18.0605 11.9595 18.7218ZM5.35039 32.9366C3.47715 32.9366 1.95312 31.4126 1.95312 29.5394V20.5758C2.87773 21.3376 4.06162 21.7957 5.35039 21.7957H7.60791V22.9164C7.60791 24.6546 9.02207 26.0687 10.7603 26.0687C12.4984 26.0687 13.9126 24.6546 13.9126 22.9164V21.7957H20.9402V22.9164C20.9402 23.8909 21.3851 24.7843 22.1116 25.3704C20.9028 27.5222 20.2129 30.0029 20.2129 32.6418C20.2129 32.7403 20.2139 32.8387 20.2158 32.9368H5.35039V32.9366ZM35.1064 45.582C27.9711 45.582 22.166 39.777 22.166 32.6416C22.166 25.5062 27.971 19.7012 35.1064 19.7012C42.2419 19.7012 48.0469 25.5062 48.0469 32.6416C48.0469 39.777 42.2419 45.582 35.1064 45.582Z" fill="#D5EFE9"/>
<path d="M37.6667 31.665H36.0828V27.3516C36.0828 26.8123 35.6455 26.3751 35.1062 26.3751C34.5669 26.3751 34.1296 26.8123 34.1296 27.3516V32.6416C34.1296 33.1809 34.5669 33.6181 35.1062 33.6181H37.6667C38.2059 33.6181 38.6432 33.1809 38.6432 32.6416C38.6432 32.1022 38.2059 31.665 37.6667 31.665Z" fill="#D5EFE9"/>
</svg>
