<svg width="44" height="38" viewBox="0 0 44 38" fill="none" xmlns="http://www.w3.org/2000/svg">
<path d="M41.4219 0.953125H2.57812C1.15655 0.953125 0 2.10967 0 3.53125V34.4688C0 35.8903 1.15655 37.0469 2.57812 37.0469H41.4219C42.8435 37.0469 44 35.8903 44 34.4688V3.53125C44 2.10967 42.8435 0.953125 41.4219 0.953125ZM2.57812 2.67188H41.4219C41.8957 2.67188 42.2812 3.05739 42.2812 3.53125V4.82031H1.71875V3.53125C1.71875 3.05739 2.10427 2.67188 2.57812 2.67188ZM41.4219 35.3281H2.57812C2.10427 35.3281 1.71875 34.9426 1.71875 34.4688V6.53906H42.2812V34.4688C42.2812 34.9426 41.8957 35.3281 41.4219 35.3281Z" fill="#D5EFE9"/>
<path d="M9.02322 8.63379H4.72635C3.58733 8.67607 3.58819 10.3107 4.72635 10.3525H9.02322C10.1622 10.3103 10.1614 8.67564 9.02322 8.63379Z" fill="#D5EFE9"/>
<path d="M9.02322 12.4473H4.72635C3.58733 12.4895 3.58819 14.1242 4.72635 14.166H9.02322C10.1622 14.1237 10.1614 12.4891 9.02322 12.4473Z" fill="#D5EFE9"/>
<path d="M9.02322 16.2607H4.72635C3.58733 16.303 3.58819 17.9376 4.72635 17.9795H9.02322C10.1622 17.9372 10.1614 16.3026 9.02322 16.2607Z" fill="#D5EFE9"/>
<path d="M9.02322 20.0741H4.72635C3.58733 20.1164 3.58819 21.751 4.72635 21.7928H9.02322C10.1622 21.7507 10.1614 20.1159 9.02322 20.0741Z" fill="#D5EFE9"/>
<path d="M9.02322 23.8876H4.72635C3.58733 23.9299 3.58819 25.5645 4.72635 25.6063H9.02322C10.1622 25.5641 10.1614 23.9294 9.02322 23.8876Z" fill="#D5EFE9"/>
<path d="M9.02322 27.701H4.72635C3.58733 27.7433 3.58819 29.3779 4.72635 29.4198H9.02322C10.1622 29.3776 10.1614 27.7429 9.02322 27.701Z" fill="#D5EFE9"/>
<path d="M9.02322 31.5145H4.72635C3.58733 31.5568 3.58819 33.1914 4.72635 33.2333H9.02322C10.1622 33.1911 10.1614 31.5564 9.02322 31.5145Z" fill="#D5EFE9"/>
<path d="M26.0975 24.256C26.5012 24.4912 27.0328 24.3562 27.2714 23.9414L30.2485 18.7852C30.4858 18.3741 30.345 17.8485 29.9339 17.6113C29.5228 17.374 28.9973 17.5148 28.76 17.9258L25.783 23.0821C25.5456 23.4931 25.6865 24.0187 26.0975 24.256Z" fill="#D5EFE9"/>
<path d="M24.3264 17.7477C23.9908 17.4121 23.4468 17.4121 23.111 17.7477L20.5329 20.3258C20.2001 20.6458 20.2001 21.2212 20.5329 21.5412L23.111 24.1194C23.4467 24.4549 23.9908 24.4549 24.3264 24.1194C24.662 23.7837 24.662 23.2396 24.3264 22.9039L22.3559 20.9335L24.3264 18.963C24.662 18.6275 24.662 18.0834 24.3264 17.7477Z" fill="#D5EFE9"/>
<path d="M31.7047 24.1195C32.0404 24.4551 32.5845 24.4551 32.9201 24.1195L35.4983 21.5413C35.8339 21.2058 35.8339 20.6616 35.4983 20.3259L32.9201 17.7478C32.5846 17.4123 32.0406 17.4122 31.7047 17.7478C31.3691 18.0834 31.3691 18.6276 31.7047 18.9632L33.6752 20.9337L31.7047 22.9041C31.3691 23.2396 31.3691 23.7838 31.7047 24.1195Z" fill="#D5EFE9"/>
<path d="M38.328 8.63379H17.703C16.564 8.67607 16.5649 10.3107 17.703 10.3525H38.328C39.467 10.3103 39.4662 8.67564 38.328 8.63379Z" fill="#D5EFE9"/>
<path d="M28.0155 12.4473H17.703C16.564 12.4895 16.5649 14.1242 17.703 14.166H28.0155C29.1545 14.1237 29.1537 12.4891 28.0155 12.4473Z" fill="#D5EFE9"/>
<path d="M38.328 27.701H17.703C16.564 27.7433 16.5649 29.3779 17.703 29.4198H38.328C39.467 29.3775 39.4662 27.743 38.328 27.701Z" fill="#D5EFE9"/>
<path d="M27.4091 31.5145H17.703C16.564 31.5568 16.5649 33.1914 17.703 33.2333H27.4091C28.5481 33.191 28.5472 31.5565 27.4091 31.5145Z" fill="#D5EFE9"/>
</svg>
