<svg width="51" height="47" viewBox="0 0 51 47" fill="none" xmlns="http://www.w3.org/2000/svg">
<path fill-rule="evenodd" clip-rule="evenodd" d="M32.5452 28.9786V23.2843L35.2961 18.5197H5.47839V40.9319H40.3418V21.1688L37.4766 26.1314L32.5452 28.9786Z" fill="#008F67"/>
<path d="M10.6653 22.2977C10.2763 21.9088 9.64568 21.9089 9.25651 22.2977C8.86753 22.6867 8.86753 23.3174 9.25651 23.7065L11.5405 25.9905L9.25651 28.2743C8.35763 29.2426 9.69808 30.5815 10.6653 29.6831L13.6536 26.6948C14.0425 26.3058 14.0425 25.6751 13.6536 25.286L10.6653 22.2977Z" fill="#D5EFE9"/>
<path d="M19.9219 27.9825H15.9375C14.6173 28.0316 14.6183 29.9262 15.9375 29.9747H19.9219C21.242 29.9257 21.241 28.0311 19.9219 27.9825Z" fill="#D5EFE9"/>
<path d="M50.9661 4.17539C50.8977 3.92019 50.7309 3.70264 50.5021 3.57056L45.5707 0.723434C45.0943 0.448313 44.4852 0.611572 44.21 1.088L39.8969 8.55859H2.98828C1.34054 8.55859 0 9.89913 0 11.5469V43.4219C0 45.0696 1.34054 46.4102 2.98828 46.4102H42.8319C44.4797 46.4102 45.8202 45.0696 45.8202 43.4219V13.6719L50.8666 4.93122C50.9987 4.70252 51.0345 4.43059 50.9661 4.17539ZM2.98828 10.5509H38.7467L37.3089 13.0411H1.99218V11.547C1.99218 10.9977 2.43903 10.5509 2.98828 10.5509ZM43.828 43.422C43.828 43.9712 43.3812 44.4181 42.8319 44.4181H2.98828C2.43903 44.4181 1.99218 43.9712 1.99218 43.422V15.0333H36.1587L31.6826 22.7862C31.5951 22.9376 31.5491 23.1094 31.5491 23.2842V28.9786C31.5491 29.3345 31.739 29.6633 32.0472 29.8412C32.3554 30.0192 32.7351 30.0192 33.0433 29.8412L37.9746 26.9941C38.1261 26.9067 38.2518 26.7809 38.3392 26.6295L43.828 17.1225V43.422ZM36.7473 25.4022L33.5412 27.2532V23.5512L45.4371 2.94681L48.6432 4.79785L36.7473 25.4022Z" fill="#D5EFE9"/>
</svg>
