<svg width="50" height="42" viewBox="0 0 50 42" fill="none" xmlns="http://www.w3.org/2000/svg">
<path d="M47.0703 0.492188H2.92969C1.31426 0.492188 0 1.80645 0 3.42188V38.5781C0 40.1936 1.31426 41.5078 2.92969 41.5078H47.0703C48.6857 41.5078 50 40.1936 50 38.5781V3.42188C50 1.80645 48.6857 0.492188 47.0703 0.492188ZM2.92969 2.44531H47.0703C47.6088 2.44531 48.0469 2.8834 48.0469 3.42188V4.88672H1.95312V3.42188C1.95312 2.8834 2.39121 2.44531 2.92969 2.44531ZM47.0703 39.5547H2.92969C2.39121 39.5547 1.95312 39.1166 1.95312 38.5781V6.83984H48.0469V38.5781C48.0469 39.1166 47.6088 39.5547 47.0703 39.5547Z" fill="#D5EFE9"/>
<path d="M12.9768 20.1336C13.0229 20.5391 13.3162 20.8732 13.7124 20.9713C14.1086 21.0693 14.5241 20.9107 14.7539 20.5735L15.9446 18.8273L17.1353 20.5735C17.6381 21.3184 18.8171 21.022 18.9124 20.1336L19.5783 14.2742C19.6392 13.7384 19.2541 13.2546 18.7182 13.1936C18.1819 13.1322 17.6986 13.5178 17.6376 14.0537L17.2685 17.302L16.7514 16.5436C16.3913 15.9818 15.4978 15.9819 15.1377 16.5436L14.6207 17.3019L14.2516 14.0537C14.1907 13.5178 13.7071 13.133 13.171 13.1936C12.6351 13.2546 12.25 13.7384 12.311 14.2742L12.9768 20.1336Z" fill="#D5EFE9"/>
<path d="M27.2322 20.9713C27.6283 20.8732 27.9218 20.5391 27.9678 20.1336L28.6336 14.2742C28.6946 13.7384 28.3095 13.2546 27.7736 13.1936C27.237 13.1322 26.7539 13.5178 26.693 14.0537L26.3239 17.3019L25.8069 16.5436C25.4468 15.9818 24.5533 15.9819 24.1932 16.5436L23.6762 17.3019L23.3071 14.0537C23.2461 13.5178 22.7625 13.133 22.2265 13.1936C21.6906 13.2546 21.3055 13.7384 21.3664 14.2742L22.0323 20.1336C22.0784 20.5391 22.3717 20.8732 22.7679 20.9713C23.1641 21.0693 23.5795 20.9107 23.8094 20.5735L25 18.8272L26.1907 20.5734C26.4203 20.9124 26.8426 21.0692 27.2322 20.9713Z" fill="#D5EFE9"/>
<path d="M31.0874 20.1336C31.183 21.0225 32.3621 21.3181 32.8646 20.5735L34.0553 18.8273L35.2459 20.5735C35.4758 20.9107 35.8913 21.0693 36.2874 20.9713C36.6836 20.8732 36.9771 20.5391 37.0231 20.1336L37.6889 14.2742C37.7498 13.7384 37.3648 13.2546 36.8289 13.1936C36.2922 13.1322 35.8092 13.5178 35.7483 14.0537L35.3791 17.3019L34.8622 16.5436C34.5021 15.9818 33.6085 15.9819 33.2485 16.5436L32.7314 17.302L32.3623 14.0537C32.3013 13.5178 31.8177 13.133 31.2817 13.1936C30.7457 13.2546 30.3607 13.7384 30.4216 14.2742L31.0874 20.1336Z" fill="#D5EFE9"/>
<path d="M22.5583 27.022H7.66576C6.37142 27.0701 6.3724 28.9276 7.66576 28.9752H22.5583C23.8527 28.9271 23.8517 27.0695 22.5583 27.022Z" fill="#D5EFE9"/>
<path d="M22.5583 31.0911H7.66576C6.37142 31.1392 6.3724 32.9967 7.66576 33.0443H22.5583C23.8527 32.9962 23.8517 31.1386 22.5583 31.0911Z" fill="#D5EFE9"/>
<path d="M22.5583 35.1602H7.66576C6.37142 35.2082 6.3724 37.0657 7.66576 37.1133H22.5583C23.8527 37.0652 23.8517 35.2076 22.5583 35.1602Z" fill="#D5EFE9"/>
<path d="M42.3338 27.022H27.4412C26.1469 27.0701 26.1479 28.9276 27.4412 28.9752H42.3338C43.6281 28.9271 43.6271 27.0695 42.3338 27.022Z" fill="#D5EFE9"/>
<path d="M42.3338 31.0911H27.4412C26.1469 31.1392 26.1479 32.9967 27.4412 33.0443H42.3338C43.6281 32.9962 43.6271 31.1386 42.3338 31.0911Z" fill="#D5EFE9"/>
<path d="M42.3338 35.1602H27.4412C26.1469 35.2082 26.1479 37.0657 27.4412 37.1133H42.3338C43.6281 37.0652 43.6271 35.2076 42.3338 35.1602Z" fill="#D5EFE9"/>
</svg>
