<svg width="599" height="564" viewBox="0 0 599 564" fill="none" xmlns="http://www.w3.org/2000/svg">
<g clip-path="url(#clip0_99_2051)">
<path d="M482.562 430.015C461.38 441.514 438.015 448.31 414.009 449.486C402.583 450.139 390.773 449.616 379.476 447.395C377.036 446.872 374.469 446.349 371.901 445.564C380.888 434.98 385.638 420.475 372.8 409.891C359.577 398.915 346.739 414.072 349.435 427.924C351.361 437.724 358.55 443.475 367.536 447.002C362.145 452.23 355.469 456.28 349.179 459.677C339.935 464.774 330.05 468.564 319.909 471.178C299.24 476.535 277.287 476.796 256.49 472.092C234.538 466.996 215.281 456.019 197.951 441.644C166.498 415.51 137.228 378.398 93.8368 374.478C48.1347 370.296 10.2634 411.328 15.5269 457.326C15.6553 458.894 18.2228 458.894 17.9661 457.326C15.0134 431.191 25.7971 404.533 47.3644 389.505C69.1885 374.347 96.0192 373.563 119.769 384.148C164.958 404.141 191.532 451.445 238.133 469.347C278.314 484.768 327.354 480.063 362.53 454.321C364.969 452.49 367.408 450.4 369.719 447.917C381.144 451.707 394.881 452.099 404.252 452.23C431.982 452.49 459.326 445.434 483.846 432.236C485.258 431.452 483.974 429.362 482.562 430.015ZM352.645 430.276C349.435 420.998 354.185 405.971 366.253 409.238C379.219 412.766 380.246 429.23 374.212 439.031C372.928 441.122 371.388 443.082 369.59 444.911C362.273 442.298 355.212 437.986 352.645 430.276Z" fill="#DADEEB"/>
<path d="M145.444 378.659L111.424 409.76L159.437 430.014L145.444 378.659Z" fill="#DADEEB"/>
<path d="M162.262 60.5978H91.5261V121.231H162.262V60.5978Z" fill="#DAEBE8"/>
<path d="M253.153 60.5978H182.417V121.231H253.153V60.5978Z" fill="#DAEBE8"/>
<path d="M162.262 87.6465V90.1292C156.485 90.7826 151.221 94.3108 148.012 99.7991C147.242 101.106 145.444 100.191 145.701 98.8845C148.012 90.2599 143.262 80.3287 134.532 77.8458C124.776 75.1016 115.019 83.3341 114.12 93.1348C113.992 94.5721 112.066 94.8335 111.681 93.5268C110.269 89.0838 108.857 84.5102 105.904 80.982C102.31 76.8004 94.9923 74.4482 91.3977 78.8912V75.6243C93.9652 73.7949 97.4314 73.2722 100.769 74.3176C107.188 76.4084 110.397 82.4194 112.58 88.5611C115.533 79.9365 124.134 73.4028 133.505 75.1016C142.62 76.8004 148.525 85.6862 148.525 94.5721C152.377 90.6519 157.127 88.2998 162.262 87.6465Z" fill="white"/>
<path d="M253.153 62.0344V64.3866C248.531 64.5172 243.91 66.0854 240.315 69.3522C231.97 76.67 229.531 88.5614 220.673 95.4872C209.119 104.635 193.971 104.503 182.417 97.1859V94.3111C191.147 100.453 202.572 102.021 212.842 97.3166C224.268 92.0896 227.606 81.2436 234.666 71.835C239.288 65.6933 246.22 62.2958 253.153 62.0344Z" fill="#ECEFF8"/>
<path d="M162.262 151.024H91.5261V211.658H162.262V151.024Z" fill="#00DF9A"/>
<path d="M162.262 154.16V156.774C154.046 155.467 145.316 157.818 139.539 164.222C131.708 172.977 130.168 186.959 119.641 193.232C111.553 198.067 101.796 194.8 95.6342 188.135C93.9653 186.306 92.6815 184.346 91.5261 182.256V175.46C93.9653 183.17 98.2017 189.703 106.546 192.447C121.951 197.413 127.6 178.727 133.505 168.534C139.539 158.08 151.093 152.592 162.262 154.16Z" fill="#18181F"/>
<path d="M71.3709 60.5978H0.635193V121.231H71.3709V60.5978Z" fill="#DAEBE8"/>
<path opacity="0.2" d="M241.47 30.6725H0.635193V41.2571H241.47V30.6725Z" fill="#00855C"/>
<path d="M312.72 60.5978H296.801V190.75H312.72V60.5978Z" fill="#DAEBE8"/>
<path d="M71.3709 151.024H0.635193V211.658H71.3709V151.024Z" fill="#DAEBE8"/>
<path d="M226.45 224.333C225.167 224.986 223.883 225.509 222.471 226.162C206.552 232.697 189.349 232.304 174.329 226.162C171.248 224.986 168.296 223.418 165.471 221.719C154.944 215.316 146.086 205.908 140.438 193.886C125.032 161.217 136.843 126.719 168.937 110.907C200.903 95.2265 240.829 104.113 256.362 136.519C256.362 136.651 256.49 136.781 256.49 136.912C272.024 169.45 278.443 198.851 226.45 224.333Z" fill="white"/>
<path d="M71.3709 60.5972V63.2107C67.5196 62.4267 63.6683 64.5174 61.1007 68.1763C56.3508 74.8407 53.9116 83.596 51.6008 91.3058C49.4184 98.6235 47.7495 106.202 46.5942 113.781C46.3374 115.219 44.0266 114.827 44.155 113.39C45.0536 105.419 45.8239 93.7885 36.4524 90.783C26.0538 87.5162 24.2566 101.106 24.1282 108.293C24.1282 109.731 22.2025 109.992 21.689 108.685C18.9931 100.322 11.2905 84.6414 0.635193 91.6978V88.9536C11.1621 83.8573 18.2228 93.7885 22.0741 102.805C23.1012 95.0953 26.3106 86.7321 35.1686 87.6468C42.6145 88.4309 45.5671 94.3113 46.4658 100.845C48.263 93.2659 50.4455 85.8174 53.2697 78.4997C55.8373 71.9659 58.79 63.0801 65.9791 60.5972C66.2358 60.4666 66.3642 60.4666 66.621 60.4666H71.3709V60.5972Z" fill="white"/>
<path d="M71.3709 175.33V178.335C64.4385 183.039 57.1211 196.107 48.5198 189.05C45.182 186.306 44.2834 181.733 43.3847 177.812C42.4861 174.022 41.5874 169.58 37.7361 167.881C29.52 164.353 29.1349 175.46 30.2903 180.426C32.0875 187.482 37.351 201.072 26.5673 204.078C22.3309 205.254 17.9661 202.902 14.885 200.027C12.1891 197.414 10.3918 194.147 7.8243 191.402C5.89865 189.443 3.33111 187.482 0.635193 186.959V183.954C8.33781 185.784 15.5269 199.504 21.5606 201.334C30.1619 204.078 31.574 193.885 30.0335 187.874C29.1349 184.477 27.5944 181.341 27.2092 177.812C26.6957 173.369 27.7227 168.273 31.574 165.66C42.3577 158.473 44.9252 176.768 47.236 182.647C49.1617 187.744 53.2697 189.181 58.4048 187.091C60.4589 186.306 62.3845 183.562 63.925 181.864C65.9791 179.512 68.1615 176.898 71.1141 175.591C71.1141 175.46 71.2425 175.46 71.3709 175.33Z" fill="#ECEFF8"/>
<path d="M19.635 16.4297C14.6283 11.3333 9.74996 6.36773 4.74326 1.27142C3.58787 0.0953519 1.91898 1.9248 2.94599 3.10086C7.95269 8.19718 12.831 13.1628 17.8377 18.2591C18.9931 19.3045 20.7904 17.475 19.635 16.4297Z" fill="#00DF9A"/>
<path d="M4.74326 18.1278C9.74996 13.0316 14.6283 8.0659 19.635 2.96959C20.7904 1.79352 18.9931 0.0947451 17.8377 1.14014C12.831 6.23645 7.95269 11.2021 2.94599 16.2984C1.91898 17.4744 3.58787 19.3039 4.74326 18.1278Z" fill="#00DF9A"/>
<path d="M277.416 376.567L421.968 380.357C421.968 380.357 353.672 240.143 353.672 238.183C353.672 236.223 277.416 376.567 277.416 376.567Z" fill="#010A17"/>
<path d="M267.916 170.625C261.24 199.243 322.476 251.513 303.476 267.454C284.477 283.397 243.011 240.927 243.011 240.927C243.011 240.927 227.349 251.513 250.457 289.408C273.565 327.304 305.916 340.763 328.253 304.567C350.591 268.239 267.916 170.625 267.916 170.625Z" fill="#F3ABAA"/>
<path d="M267.916 170.625C261.24 199.243 322.476 251.513 303.476 267.454C298.983 271.244 293.335 271.767 287.301 270.33C288.97 288.363 289.227 306.658 289.997 324.821C303.733 328.218 317.213 322.6 328.382 304.567C350.591 268.239 267.916 170.625 267.916 170.625Z" fill="#010A17"/>
<path d="M231.714 235.308C193.586 253.995 147.627 237.792 129.269 198.981C110.911 160.171 125.032 118.878 163.16 100.191C201.288 81.5044 249.045 92.2198 267.531 131.03C285.889 169.971 293.463 204.992 231.714 235.308Z" fill="#5D5FEF"/>
<path d="M231.329 221.848C229.788 222.763 228.119 223.548 226.45 224.331C225.166 224.985 223.883 225.507 222.471 226.161C206.552 232.694 189.349 232.303 174.329 226.161C171.248 224.985 168.295 223.416 165.471 221.718C165.214 221.587 164.958 221.457 164.829 221.326C160.464 218.581 156.485 215.446 152.89 211.787C147.884 206.691 143.775 200.81 140.566 194.015C137.228 186.958 135.174 179.772 134.276 172.715C134.019 171.277 133.89 169.709 133.89 168.272C133.762 166.442 133.762 164.613 133.89 162.784C134.019 161.084 134.147 159.517 134.276 157.818C134.532 155.596 134.917 153.375 135.431 151.153C136.073 148.54 136.843 145.927 137.999 143.444C143.39 129.854 153.917 118.355 168.937 111.036C200.903 95.3556 240.828 104.242 256.362 136.648C256.362 136.78 256.49 136.91 256.49 137.041C257.517 139.262 258.544 141.353 259.443 143.574C272.152 172.192 274.72 198.589 231.329 221.848Z" fill="white"/>
<path d="M164.829 143.314V221.326C160.464 218.582 156.485 215.447 152.89 211.788C147.884 206.691 143.775 200.811 140.566 194.016C137.228 186.959 135.174 179.772 134.276 172.716C134.019 171.278 133.89 169.71 133.89 168.273C133.762 166.443 133.762 164.614 133.89 162.785C134.019 161.085 134.147 159.518 134.276 157.818C134.532 155.597 134.917 153.376 135.431 151.154C136.073 148.54 136.843 145.928 137.999 143.445H164.829V143.314Z" fill="#00DF9A"/>
<path d="M164.829 147.496V150.893C154.174 149.063 142.877 152.2 135.431 160.564C134.917 161.217 134.276 161.87 133.762 162.523C133.89 160.824 134.019 159.256 134.147 157.558C142.492 149.718 153.789 145.928 164.829 147.496Z" fill="#010A17"/>
<path d="M259.443 143.314C272.152 172.193 274.72 198.59 231.329 221.849H191.275V143.314H259.443Z" fill="#DADEEB"/>
<path d="M242.369 143.314H246.605C246.477 143.445 246.349 143.575 246.349 143.705C237.362 154.944 237.362 169.579 239.16 183.3C240.058 185.391 240.572 187.744 240.187 190.356C239.93 192.056 237.362 192.709 236.977 190.749C236.592 188.789 236.335 186.829 236.079 184.868C233.511 179.38 226.065 177.551 220.545 181.21C214.768 185.13 213.356 191.925 213.484 198.328C213.484 200.419 210.403 200.419 210.275 198.328C209.633 189.965 208.734 177.943 198.849 175.59C195.768 174.807 193.201 175.329 191.147 176.636V172.585C192.944 171.801 194.87 171.408 197.052 171.54C206.038 172.193 210.018 179.642 211.944 187.744C214.126 181.601 218.619 176.766 225.68 175.852C229.403 175.329 232.741 176.505 235.308 178.596C234.538 166.052 235.437 153.115 242.369 143.314Z" fill="white"/>
<path d="M265.605 145.666C266.889 145.536 293.463 172.193 293.463 172.193C293.463 172.193 278.956 186.959 273.565 181.601C272.666 180.687 246.092 159.518 246.092 159.518L265.605 145.666Z" fill="#F3ABAA"/>
<path d="M261.369 112.867C233.639 102.674 214.64 150.762 248.403 163.307C276.646 173.631 295.902 125.672 261.369 112.867Z" fill="#F3ABAA"/>
<path d="M260.855 116.657C249.301 112.344 233.896 109.077 231.97 117.571C230.173 124.236 247.632 129.985 252.767 133.382C256.49 131.684 261.112 130.115 264.707 132.859C269.328 136.388 268.815 142.922 265.734 147.887C267.531 151.807 273.051 155.336 273.693 155.728C283.578 143.052 282.808 124.759 260.855 116.657Z" fill="#010A17"/>
<path d="M231.97 132.861L232.099 147.104L222.984 144.098L231.97 132.861Z" fill="#010A17"/>
<path d="M241.214 131.423L241.085 133.382C241.085 134.951 238.518 134.559 238.646 132.991L238.774 131.031C238.903 129.462 241.342 129.855 241.214 131.423Z" fill="#18181F"/>
<path d="M260.342 138.087C259.7 139.263 258.93 140.57 258.288 141.746C257.517 143.184 259.443 144.621 260.213 143.315C260.855 142.139 261.625 140.831 262.267 139.655C263.166 138.349 261.112 136.781 260.342 138.087Z" fill="#18181F"/>
<path d="M256.234 129.462C248.788 132.076 241.47 134.82 234.024 137.433C232.869 134.427 231.585 131.422 230.43 128.286C229.788 126.848 227.477 127.502 227.991 128.939C229.274 132.206 234.024 144.228 234.795 146.319C235.437 147.757 237.747 147.104 237.234 145.666C236.464 143.706 235.693 141.746 234.923 139.785C242.241 137.172 249.558 134.559 256.875 131.815C258.416 131.292 257.774 128.809 256.234 129.462Z" fill="#010A17"/>
<path d="M222.342 107.639C246.22 129.201 279.47 143.967 292.821 140.438C306.172 136.911 270.483 132.598 278.186 117.44C285.889 102.282 277.287 109.6 269.456 110.123C261.754 110.776 269.456 99.6682 266.632 96.2707C263.808 92.7425 251.997 114.304 245.835 111.691C239.801 109.338 213.998 100.06 222.342 107.639Z" fill="#05AC8E"/>
<path d="M298.47 164.221C293.335 163.438 289.098 163.307 285.504 163.438C285.504 163.568 285.504 163.699 285.504 163.83C285.504 164.876 285.504 165.79 285.504 166.835C285.504 167.227 285.504 167.488 285.504 167.881C285.504 168.796 285.504 168.534 285.375 167.881C285.76 173.761 282.936 178.857 277.031 180.818C276.004 181.21 274.848 181.34 273.821 181.21C294.875 218.713 320.165 268.5 320.165 268.5L372.928 237.53C372.928 237.53 324.53 168.011 298.47 164.221Z" fill="#00DF9A"/>
<path d="M356.239 272.943C356.239 272.943 359.064 254.779 347.51 256.478C311.693 261.705 227.734 288.493 192.944 387.937C146.985 519.396 169.964 523.839 135.816 535.73C99.8706 548.405 103.594 563.563 103.594 563.563H236.464C236.464 563.563 258.801 376.568 341.99 312.146C425.178 247.723 356.239 272.943 356.239 272.943Z" fill="#05AC8E"/>
<path d="M372.928 237.53C395.266 258.961 432.11 350.302 476.015 396.691C571.656 497.834 595.149 531.94 598.872 563.433H459.84C459.84 563.433 454.833 552.064 482.177 535.599C500.407 524.622 450.468 487.119 410.158 429.491C358.037 355.007 329.409 251.382 329.409 251.382L372.928 237.53Z" fill="#05AC8E"/>
<path d="M153.275 525.275C149.938 529.849 144.931 532.594 135.816 535.73C99.8706 548.405 103.594 563.563 103.594 563.563H236.464C236.464 563.563 238.261 548.405 242.754 525.275H153.275Z" fill="#010A17"/>
<path d="M483.974 521.878C487.055 528.151 486.927 532.855 482.305 535.73C454.961 552.195 459.968 563.564 459.968 563.564H599C597.588 551.28 593.095 538.735 582.696 522.009H483.974V521.878Z" fill="#010A17"/>
<path d="M312.334 252.95C317.213 262.358 320.294 268.5 320.294 268.5L373.057 237.53C373.057 237.53 369.847 232.826 364.584 225.9C346.996 234.786 329.537 243.672 312.334 252.95Z" fill="#05AC8E"/>
<path d="M170.093 540.173C165.985 537.429 161.877 534.553 157.64 531.809C156.356 530.895 155.073 533.116 156.356 534.03C160.464 536.775 164.572 539.65 168.809 542.394C170.093 543.178 171.376 540.956 170.093 540.173Z" fill="white"/>
<path d="M510.805 533.509C504.386 532.594 498.096 531.548 491.677 530.633C490.136 530.372 489.495 532.855 491.035 533.117C497.454 534.032 503.744 535.076 510.163 535.991C511.704 536.122 512.346 533.77 510.805 533.509Z" fill="white"/>
<path d="M346.483 294.243C344.814 290.062 343.145 285.88 341.476 281.567C340.834 280.131 338.523 280.784 339.037 282.222C340.706 286.402 342.375 290.584 344.044 294.897C344.685 296.334 347.125 295.68 346.483 294.243Z" fill="white"/>
<path d="M351.489 250.075L372.928 237.53C372.928 237.53 324.53 168.012 298.47 164.222C296.287 163.961 279.727 164.745 277.801 164.614C304.247 190.357 331.206 221.719 351.489 250.075Z" fill="#010A17"/>
<path d="M338.266 229.95C352.516 249.551 393.469 363.239 403.995 392.379L500.792 355.137C500.792 355.137 397.191 241.449 354.314 219.366C311.436 197.282 338.266 229.95 338.266 229.95Z" fill="#010A17"/>
<path d="M291.024 173.892C289.355 173.108 257.903 159.518 257.903 159.518L282.294 142.269L301.294 164.222L291.024 173.892Z" fill="#010A17"/>
<path d="M455.09 238.052C443.664 247.853 432.367 257.654 420.428 266.67C426.975 276.733 430.698 284.573 431.853 287.578C434.806 295.549 426.847 310.708 433.137 311.1C439.299 311.492 442.637 292.936 442.637 292.936C442.637 292.936 454.448 326.389 460.353 325.082C462.921 324.56 462.664 319.855 461.508 314.89C463.306 318.81 465.488 322.207 468.184 322.207C474.86 322.207 466.13 297.771 466.13 297.771C466.13 297.771 473.191 318.026 478.583 316.719C483.974 315.412 473.576 295.68 473.576 295.68C473.576 295.68 483.974 312.145 487.184 310.447C490.778 308.617 483.204 275.818 455.09 238.052Z" fill="#F3ABAA"/>
<path d="M415.806 277.387C430.056 269.807 448.671 252.689 457.529 241.582C448.029 228.384 435.961 214.532 420.941 200.942C364.712 150.371 276.902 146.319 276.902 164.745C276.902 165.529 321.192 180.948 365.482 210.22C392.313 227.861 405.279 260.53 415.806 277.387Z" fill="#010A17"/>
<path d="M414.394 276.079C412.597 271.375 410.8 266.671 409.002 262.098C408.36 260.66 406.05 261.313 406.563 262.751C408.36 267.454 410.158 272.159 411.955 276.732C412.468 278.3 414.908 277.647 414.394 276.079Z" fill="white"/>
<path d="M461.123 312.146C459.069 306.004 457.015 299.862 454.961 293.721C454.448 292.153 452.009 292.806 452.522 294.374L457.272 308.487C458.812 313.192 461.894 319.071 460.481 324.168C460.096 325.736 462.407 326.39 462.921 324.821C464.204 320.379 462.535 316.459 461.123 312.146Z" fill="#0A0A0A"/>
<path d="M470.238 310.708C468.697 304.044 466.772 297.51 465.103 290.845C464.718 289.278 462.279 289.931 462.664 291.499C463.819 296.072 465.103 300.646 466.258 305.22C467.542 309.924 469.981 315.673 467.285 320.378C466.515 321.816 468.569 322.992 469.468 321.684C471.522 318.157 471.137 314.497 470.238 310.708Z" fill="#0A0A0A"/>
<path d="M478.839 305.743C476.785 299.732 474.731 293.721 472.677 287.71C472.164 286.142 469.724 286.795 470.238 288.363C471.778 292.675 473.191 297.118 474.731 301.43C476.015 305.22 479.224 311.101 477.427 314.89C476.785 316.327 478.839 317.634 479.61 316.197C481.278 312.537 480.123 309.402 478.839 305.743Z" fill="#0A0A0A"/>
<path d="M299.753 285.357C288.199 267.847 266.889 241.059 249.045 218.974C244.551 222.111 239.93 225.116 235.18 227.469C246.99 244.195 269.071 275.034 284.348 294.243C298.598 312.146 300.652 309.532 304.375 307.049C307.199 305.22 310.152 301.038 299.753 285.357Z" fill="#5D5FEF"/>
<path d="M242.626 241.32C245.578 235.048 262.909 232.042 264.578 237.923C266.247 243.803 249.686 247.201 249.686 247.201C249.686 247.201 267.916 240.406 270.355 247.985C272.794 255.564 254.18 258.047 254.18 258.047C254.18 258.047 269.071 248.769 272.794 255.564C276.517 262.359 257.517 266.149 257.517 266.149C257.517 266.149 274.463 261.053 276.902 266.541C279.342 272.029 263.294 279.216 263.294 279.216L242.626 241.32Z" fill="#F3ABAA"/>
<path d="M275.49 260.007C267.531 261.052 260.085 263.535 253.153 267.456C251.741 268.239 253.024 270.461 254.436 269.677C260.984 266.018 268.044 263.666 275.619 262.621C277.159 262.228 277.159 259.745 275.49 260.007Z" fill="#5D5FEF"/>
<path d="M277.416 271.244C269.713 273.466 262.781 277.255 256.747 282.612C255.592 283.658 257.261 285.488 258.544 284.442C264.321 279.345 270.74 275.818 278.058 273.727C279.598 273.204 278.956 270.852 277.416 271.244Z" fill="#5D5FEF"/>
<path d="M272.409 251.121C263.294 249.292 254.18 251.121 246.477 256.478C245.193 257.394 246.349 259.615 247.761 258.7C254.822 253.734 263.166 251.775 271.767 253.473C273.436 253.865 274.078 251.383 272.409 251.121Z" fill="#5D5FEF"/>
<path d="M265.348 241.319C256.49 241.451 248.403 245.109 242.497 251.774C241.47 252.95 243.139 254.779 244.295 253.603C249.815 247.462 257.132 244.063 265.477 243.933C266.889 243.933 266.889 241.319 265.348 241.319Z" fill="#5D5FEF"/>
<path d="M154.046 247.592C144.032 260.267 133.89 272.812 123.877 285.488C123.107 286.534 123.877 287.84 125.032 287.578C125.931 287.448 146.343 261.182 155.843 249.421C156.742 248.115 155.073 246.416 154.046 247.592Z" fill="#00DF9A"/>
<path d="M182.289 257.785C181.005 267.585 179.593 277.386 178.309 287.186C178.052 288.755 180.491 289.408 180.748 287.84C182.032 278.039 183.444 268.239 184.728 258.438C184.856 256.87 182.417 256.217 182.289 257.785Z" fill="#00DF9A"/>
</g>
<defs>
<clipPath id="clip0_99_2051">
<rect width="599" height="563.665" fill="white" transform="translate(0 0.325928)"/>
</clipPath>
</defs>
</svg>
