<svg width="20" height="21" viewBox="0 0 20 21" fill="none" xmlns="http://www.w3.org/2000/svg">
<path d="M10 0.200195C4.478 0.200195 0 4.67819 0 10.2002C0 15.7222 4.478 20.2002 10 20.2002C15.522 20.2002 20 15.7222 20 10.2002C20 4.67819 15.522 0.200195 10 0.200195ZM7.09412 15.3174H4.65866V7.99026H7.09412V15.3174ZM5.87646 6.98975H5.8606C5.04333 6.98975 4.51477 6.42715 4.51477 5.72403C4.51477 5.00504 5.05951 4.45801 5.89264 4.45801C6.72577 4.45801 7.23846 5.00504 7.25433 5.72403C7.25433 6.42715 6.72577 6.98975 5.87646 6.98975ZM15.8759 15.3174H13.4407V11.3976C13.4407 10.4124 13.0881 9.7406 12.2069 9.7406C11.5341 9.7406 11.1334 10.1938 10.9573 10.6313C10.8929 10.7878 10.8772 11.0066 10.8772 11.2256V15.3174H8.44193C8.44193 15.3174 8.47382 8.67767 8.44193 7.99026H10.8772V9.02771C11.2009 8.52844 11.7799 7.8183 13.0721 7.8183C14.6744 7.8183 15.8759 8.86551 15.8759 11.116V15.3174Z" fill="white"/>
</svg>
