<svg width="46" height="46" viewBox="0 0 46 46" fill="none" xmlns="http://www.w3.org/2000/svg">
<g clip-path="url(#clip0_101_1921)">
<path d="M35.6443 10.8711C35.8939 11.8782 36.0273 12.9313 36.0273 14.0156C36.0273 21.2105 30.1948 27.043 23 27.043C15.8052 27.043 9.97266 21.2105 9.97266 14.0156C9.97266 12.9313 10.106 11.8782 10.3557 10.8711H4.49219V34.2305H41.5078V10.8711H35.6443Z" fill="#008F67"/>
<path d="M42.4062 6.37891H34.6391C32.1471 2.5937 27.8608 0.0898438 23 0.0898438C18.1392 0.0898438 13.8528 2.5937 11.3609 6.37891H3.59375C1.61216 6.37891 0 7.99106 0 9.97266V35.1289C0 37.1105 1.61216 38.7227 3.59375 38.7227H17.1602V44.1133H15.3633C14.8671 44.1133 14.4648 44.5156 14.4648 45.0117C14.4648 45.5078 14.8671 45.9102 15.3633 45.9102H30.6367C31.1328 45.9102 31.5352 45.5078 31.5352 45.0117C31.5352 44.5156 31.1328 44.1133 30.6367 44.1133H28.8398V38.7227H42.4062C44.3878 38.7227 46 37.1105 46 35.1289V9.97266C46 7.99106 44.3878 6.37891 42.4062 6.37891ZM23 1.88672C29.6879 1.88672 35.1289 7.32775 35.1289 14.0156C35.1289 20.7035 29.6879 26.1445 23 26.1445C16.3121 26.1445 10.8711 20.7035 10.8711 14.0156C10.8711 7.32775 16.312 1.88672 23 1.88672ZM27.043 44.1133H18.957V38.7227H27.043V44.1133ZM44.2031 35.1289C44.2031 36.1197 43.397 36.9258 42.4062 36.9258C40.307 36.9258 4.49461 36.9258 3.59375 36.9258C2.60295 36.9258 1.79688 36.1197 1.79688 35.1289V9.97266C1.79688 8.98186 2.60295 8.17578 3.59375 8.17578H10.3597C9.53539 9.9528 9.07422 11.9312 9.07422 14.0156C9.07422 21.6944 15.3212 27.9414 23 27.9414C30.6788 27.9414 36.9258 21.6944 36.9258 14.0156C36.9258 11.9312 36.4646 9.9528 35.6403 8.17578H42.4062C43.397 8.17578 44.2031 8.98186 44.2031 9.97266V35.1289Z" fill="#D5EFE9"/>
<path d="M21.6523 42.3164H24.3477C24.8438 42.3164 25.2461 41.9141 25.2461 41.418C25.2461 40.9219 24.8438 40.5195 24.3477 40.5195H21.6523C21.1561 40.5195 20.7539 40.9219 20.7539 41.418C20.7539 41.9141 21.1561 42.3164 21.6523 42.3164Z" fill="#D5EFE9"/>
<path d="M17.1602 20.7539C18.6464 20.7539 19.8555 19.5448 19.8555 18.0586C19.8555 16.3595 19.8555 12.8886 19.8555 11.7695H27.9414V13.5664H27.043C25.5568 13.5664 24.3477 14.7755 24.3477 16.2617C24.3477 17.7479 25.5568 18.957 27.043 18.957C28.5292 18.957 29.7383 17.7479 29.7383 16.2617C29.7383 15.0477 29.7383 8.61404 29.7383 7.27734C29.7383 6.78123 29.336 6.37891 28.8398 6.37891H18.957C18.4608 6.37891 18.0586 6.78123 18.0586 7.27734V15.3633H17.1602C15.674 15.3633 14.4648 16.5724 14.4648 18.0586C14.4648 19.5448 15.674 20.7539 17.1602 20.7539ZM27.9414 16.2617C27.9414 16.7571 27.5384 17.1602 27.043 17.1602C26.5476 17.1602 26.1445 16.7571 26.1445 16.2617C26.1445 15.7663 26.5476 15.3633 27.043 15.3633H27.9414V16.2617ZM19.8555 8.17578H27.9414V9.97266H19.8555V8.17578ZM17.1602 17.1602H18.0586V18.0586C18.0586 18.554 17.6556 18.957 17.1602 18.957C16.6648 18.957 16.2617 18.554 16.2617 18.0586C16.2617 17.5632 16.6648 17.1602 17.1602 17.1602Z" fill="#D5EFE9"/>
</g>
<defs>
<clipPath id="clip0_101_1921">
<rect width="46" height="46" fill="white"/>
</clipPath>
</defs>
</svg>
