<svg width="192" height="183" viewBox="0 0 192 183" fill="none" xmlns="http://www.w3.org/2000/svg">
<path d="M131.372 50.2129C119.754 56.7347 108.126 63.2444 96.5075 69.7662C88.7831 74.0902 81.0454 78.4351 73.8809 83.6277C61.064 92.9154 49.81 105.087 34.8602 110.276C40.2194 125.755 55.0787 137.086 71.2623 139.672C87.4348 142.256 109.315 141.419 121.805 130.829C136.192 118.623 141.432 104.875 143.525 86.1251C144.508 77.3454 144.672 60.7547 138.444 54.4787C135.123 51.1309 132.584 48.2058 131.614 50.4598" fill="#00DF9A"/>
<path d="M104.317 46.5163C105.897 47.5245 106.976 48.9124 107.639 50.662C108.208 52.1564 106.571 53.3806 105.231 53.0978C103.016 52.6345 101.366 51.016 100.589 48.9354C100.109 47.6751 101.3 46.5042 102.473 46.4319C104.42 46.3129 107.377 47.122 107.908 49.2982C108.505 51.753 105.782 53.2929 103.681 53.0406C101.59 52.7907 99.7504 50.7108 101.01 48.6348C102.146 46.7572 105.297 46.7545 105.899 49.08C106.533 51.5446 102.722 52.6073 102.087 50.1426C102.302 51.0019 103.922 51.7094 104.382 50.6869C104.419 50.3555 104.458 50.0148 104.496 49.6835C104.439 49.4781 104.333 49.3097 104.165 49.1852C104.001 49.1219 103.985 49.1076 104.126 49.1447C104.269 49.1724 104.257 49.1793 104.095 49.1466C104.227 49.1812 104.335 49.1497 104.338 49.1403C104.293 49.1585 104.257 49.1793 104.233 49.2331C103.944 49.7189 104.022 50.2611 104.457 50.8572C104.361 50.8419 104.051 50.6098 104.023 50.6024C103.52 50.3795 103.051 50.3666 102.512 50.3951C103.144 49.5583 103.764 48.7283 104.396 47.8915C104.503 48.1705 104.773 48.5528 105.149 48.8422C105.405 49.0502 105.742 49.1792 106.244 49.2914C105.439 50.1025 104.642 50.9161 103.837 51.7271C103.57 51.0249 102.976 50.3468 102.332 49.9363C101.431 49.3578 101.067 48.1884 101.618 47.24C102.138 46.3335 103.416 45.9378 104.317 46.5163Z" fill="#4F5054"/>
<path d="M93.0922 61.8185C90.1638 60.9768 91.4502 56.5502 94.3689 57.2388C96.3232 57.7035 97.9945 60.2707 97.358 62.2299C96.5599 64.6883 93.5803 64.726 92.016 63.0097C90.57 61.4149 90.3322 59.0046 90.7741 56.9841C91.0737 55.6184 92.5651 55.2889 93.6789 55.783C96.0143 56.8195 97.5942 59.5432 97.3032 62.0951C97.1839 63.1572 96.5299 64.0784 95.3532 64.0895C93.0773 64.122 91.4236 62.4022 91.1757 60.22C91.055 59.1549 92.1396 58.2367 93.1257 58.2256C94.2837 58.2096 94.9995 59.1105 95.1202 60.1756C95.1207 60.1356 95.1187 60.105 95.1098 60.0625C95.0432 59.9346 95.0432 59.9346 95.1123 60.0531C95.1123 60.0531 95.1068 60.1119 95.2471 60.189C95.0392 60.064 95.3345 60.1619 95.3433 60.2043C95.3305 60.1006 94.7795 60.136 95.2925 60.1307C94.6465 60.7932 93.9886 61.4627 93.3425 62.1252C93.5038 60.713 92.991 59.7653 91.6876 59.1911C92.655 58.7939 93.6249 58.3872 94.5924 57.99C94.5098 58.3795 94.4643 58.819 94.5293 59.2575C94.5663 59.498 94.6309 59.7859 94.7222 60.0106C94.7153 59.9987 95.0519 60.5489 94.8787 60.2926C95.1837 60.7341 94.936 60.2274 94.8006 60.3222C94.2842 60.2263 93.8713 60.4988 93.562 61.1396C93.5397 61.2241 93.5269 61.3109 93.5328 61.4028C93.6755 61.4705 93.3689 61.149 93.3275 61.0778C93.3872 61.1939 93.3477 61.1534 93.204 60.9751C93.3512 61.064 93.5082 61.1154 93.6726 61.1386C93.9961 61.0533 94.322 60.9586 94.6455 60.8732C94.8663 60.3395 95.0872 59.8058 95.2986 59.2696C95.1328 58.9851 94.9601 58.6888 94.7942 58.4043C94.8174 58.4305 94.8406 58.4566 94.8732 58.4853C94.5765 58.3168 94.2728 58.1366 93.9761 57.9681C94.0136 57.978 94.0512 57.9879 94.0887 57.9977C96.5412 58.704 95.5447 62.5247 93.0922 61.8185Z" fill="#4F5054"/>
<path d="M76.7232 71.02C76.3059 69.2146 77.7348 67.8654 79.4991 67.9088C80.9128 67.9502 82.3441 69.0295 83.0064 70.2473C83.731 71.5719 83.5829 73.2384 82.4612 74.2973C81.4349 75.2609 79.8533 75.2857 78.6515 74.6681C77.3446 73.9928 76.6572 72.5275 76.9834 71.0986C77.3349 69.5358 78.8096 68.4696 80.3572 68.3455C83.6479 68.0787 85.2329 72.2685 83.3816 74.6501C82.121 76.2743 79.9651 76.1177 78.5419 74.7797C77.3837 73.6921 76.6034 72.1221 76.3525 70.5612C76.1775 69.5118 76.6217 68.435 77.7268 68.1242C78.6691 67.8607 79.9913 68.4398 80.1639 69.4985C80.2427 69.9607 80.3404 70.4279 80.5398 70.8516C80.6474 71.0906 80.7925 71.3395 80.9568 71.5534C81.0102 71.6176 81.3247 71.871 81.3468 71.9771C81.2931 71.7623 80.2397 72.2573 80.2585 72.2623C80.2164 72.4217 80.2382 72.3774 80.293 72.131C80.2856 72.1591 80.2782 72.1872 80.2708 72.2154C80.2788 71.766 80.2308 72.4055 80.5034 72.2466C80.5271 72.2327 80.6016 72.2925 80.6466 72.2742C80.9231 72.1765 80.8729 71.6817 80.8023 71.4926C80.7293 71.3128 80.631 71.2669 80.5101 71.1548C80.4306 71.1138 80.3531 71.1034 80.2587 71.1187C80.513 71.1054 80.4963 71.1311 80.199 71.1932C80.0553 71.2055 79.9298 71.2628 79.832 71.3674C79.6394 71.5274 79.5594 71.717 79.5894 71.9456C79.4061 72.2986 79.859 72.2172 79.5198 72.0576C79.6087 72.1011 79.2868 71.8759 79.2868 71.8759C79.1628 71.8131 79.1465 71.7988 79.2473 71.8354C79.5337 71.8908 79.8077 71.8025 80.0507 71.5655C80.2192 71.2688 80.3995 70.9651 80.568 70.6684C80.5556 70.7153 80.5433 70.7622 80.5191 70.816C80.5187 70.4748 80.5113 70.1218 80.5109 69.7806C80.5267 69.8349 80.5331 69.8867 80.5464 69.9504C81.0939 72.4422 77.2825 73.5049 76.7232 71.02Z" fill="#4F5054"/>
<path d="M72.5081 80.775C74.9537 81.4694 76.3376 83.8705 75.7795 86.3319C75.5402 87.3925 74.3728 87.9779 73.3616 87.7416C69.3591 86.7875 66.9855 82.8114 67.5978 78.8494C67.7185 78.0485 68.69 77.3312 69.48 77.3788C73.2071 77.5882 76.2755 81.5166 74.8456 85.193C74.4226 86.2654 73.095 87.23 71.9408 86.3942C70.1289 85.0842 69.601 83.0891 70.5185 81.0534C70.9637 80.0872 72.3622 79.8436 73.2148 80.3391C74.2146 80.9235 74.3743 82.0692 73.9291 83.0354C74.0284 82.8108 74.0323 83.0626 73.9158 82.9717C72.9484 83.369 71.9785 83.7756 71.011 84.1728C71.4463 83.0535 70.912 81.3878 69.5175 81.3114C70.1472 80.8252 70.7794 80.3296 71.3998 79.8409C71.1055 81.7197 72.5963 83.4869 74.3511 83.909C73.5451 84.3789 72.7391 84.8488 71.9331 85.3187C72.0177 84.9597 71.8093 84.6841 71.4741 84.5858C69.0567 83.8988 70.0531 80.0781 72.5081 80.775Z" fill="#4F5054"/>
<path d="M95.8987 72.9115C96.8594 71.9305 98.0818 70.9082 99.4122 70.4661C100.83 69.9968 102.352 70.6185 103.062 71.9193C103.7 73.0804 103.66 74.5647 102.938 75.6686C102.158 76.8777 100.873 77.4522 99.593 77.9679C98.4033 78.447 97.0817 77.2561 97.0894 76.0844C97.0978 74.3008 97.7945 72.6082 99.1088 71.3894C99.8921 70.6627 101.128 70.6171 101.907 71.3941C102.646 72.1305 102.688 73.4558 101.902 74.1919C101.333 74.7142 101.053 75.2824 101.043 76.0424C100.206 75.4106 99.3765 74.7907 98.5397 74.1589C98.8543 74.0311 99.319 73.7523 99.5442 73.621C99.9971 73.349 99.5393 73.4491 99.5961 73.6146C99.5817 73.8215 99.5748 73.8096 99.5803 73.5602C99.563 73.6259 99.5763 73.6896 99.599 73.7558C99.6217 73.822 99.6538 73.8906 99.712 73.936C99.9885 74.2195 100.319 74.2967 100.702 74.1768C100.709 74.1886 100.026 74.5706 100 74.5938C99.5162 74.9078 99.1068 75.2815 98.7062 75.6976C96.9113 77.5222 94.1157 74.7291 95.8987 72.9115Z" fill="#4F5054"/>
<path d="M108.802 63.4991C109.929 64.2475 111.056 64.9959 112.184 65.7442C113.243 66.4447 113.524 67.8931 112.589 68.8508C110.932 70.5313 107.878 70.3587 106.579 68.3209C105.984 67.3816 105.815 66.1935 106.158 65.1201C106.565 63.8427 107.453 63.0233 108.666 62.5303C109.655 62.1286 110.84 62.9624 111.103 63.9046C111.418 65.031 110.72 65.9306 109.729 66.3416C109.92 66.2617 109.892 66.2542 110.04 66.1126C109.941 66.2972 109.912 66.3298 109.966 66.2034C110.01 66.0746 110 66.1121 109.936 66.316C109.919 65.9605 109.939 66.4972 109.934 66.2854C109.933 66.2148 109.908 66.158 109.852 66.1032C109.962 66.2928 109.976 66.3165 109.907 66.198C109.671 65.875 109.851 66.1832 109.896 66.1249C109.707 66.0449 109.681 66.028 109.829 66.077C109.972 66.1047 109.941 66.1066 109.749 66.076C109.81 66.072 109.869 66.0775 109.93 66.0736C109.72 66.1086 109.722 66.0992 109.947 66.0479C109.812 66.0626 109.533 66.3603 109.819 66.0745C109.957 67.114 110.087 68.1416 110.225 69.181C109.098 68.4327 107.97 67.6843 106.843 66.9359C105.957 66.3412 105.566 65.195 106.129 64.2396C106.618 63.3351 107.915 62.9044 108.802 63.4991Z" fill="#4F5054"/>
<path d="M84.6551 82.6507C85.4655 82.0114 86.314 81.7233 87.3469 81.9151C88.0254 82.0437 88.6958 82.431 89.1411 82.9496C90.4586 84.4604 90.0329 86.6858 88.298 87.6735C86.5462 88.6868 84.3422 87.8754 83.6528 85.9983C83.0977 84.4877 83.7919 82.6139 85.2157 81.8553C86.1254 81.3726 87.4097 81.6006 87.9176 82.5671C88.3978 83.4861 88.1842 84.7542 87.2058 85.2689C86.8907 85.4367 87.5303 84.913 87.232 85.2458C87.1317 85.3598 87.1797 85.2921 87.3851 85.0453C87.2863 85.2299 87.3036 85.1643 87.4489 84.8414C87.4271 84.8858 87.4123 84.9421 87.4 84.989C87.3604 85.1391 87.3733 85.0522 87.4198 84.7234C87.4119 84.7915 87.4133 84.8621 87.4148 84.9327C87.402 84.829 87.3867 84.7347 87.3645 84.6285C87.3778 84.6922 87.398 84.7678 87.4207 84.834C87.2786 84.5357 87.2559 84.4695 87.3595 84.6473C87.2993 84.5712 87.2416 84.4858 87.1813 84.4097C86.9083 84.2275 86.8595 84.1845 87.0416 84.2927C86.7395 84.183 86.6575 84.1514 86.817 84.1934C86.9696 84.2235 86.8896 84.2225 86.5726 84.1691C86.775 84.1622 86.7232 84.1687 86.4027 84.2046C86.5563 84.1548 86.5538 84.1641 86.3859 84.2303C85.9938 84.5383 86.9188 83.7687 86.2269 84.3389C86.253 84.3157 86.2817 84.2831 86.3079 84.2599C86.1508 84.3991 86.0545 84.5744 86.012 84.7738C86.054 84.6144 86.049 84.6331 86.0184 84.8257C85.9764 84.9852 85.9862 85.1383 86.0429 85.3037C85.9842 85.1077 86.0163 85.1763 86.1416 85.5003C86.0632 85.3793 86.0795 85.3935 86.1905 85.5432C86.3134 85.6859 86.3179 85.7072 86.2157 85.6C86.5025 85.806 86.5608 85.8514 86.3905 85.7363C86.0819 85.5748 86.8783 85.8649 86.5287 85.7828C86.1791 85.7007 87.0111 85.7794 86.6744 85.8011C87.0235 85.7325 87.106 85.7242 86.903 85.7711C87.1084 85.7148 87.2862 85.6111 87.4389 85.4507C87.0205 85.7819 86.6175 86.0169 86.062 86.031C85.5702 86.0319 84.9752 85.815 84.641 85.446C83.9958 84.7343 83.7898 83.3457 84.6551 82.6507Z" fill="#4F5054"/>
<path d="M118.712 64.3441C119.605 63.1246 120.909 62.3646 122.459 62.4218C123.979 62.4809 125.369 63.2185 126.143 64.546C126.675 65.4586 126.363 66.7207 125.432 67.2478C123.972 68.0671 122.079 68.5116 120.79 67.1188C119.641 65.883 119.721 63.6367 121.339 62.8288C122.288 62.3466 123.481 62.5805 124.04 63.5406C124.552 64.4177 124.288 65.7627 123.329 66.2424C123.942 65.7419 124.097 65.1909 123.804 64.5918C123.614 64.3212 123.357 64.1532 123.031 64.0973C122.99 64.0262 123.347 63.8895 123.439 63.8436C123.202 64.7442 122.964 65.6448 122.727 66.5455C122.561 66.261 122.819 66.5396 122.669 66.46C122.59 66.379 122.59 66.379 122.672 66.4506C122.765 66.5153 122.753 66.5223 122.66 66.4575C122.529 66.3829 122.567 66.3928 122.756 66.4729C122.7 66.458 122.646 66.4338 122.59 66.419C122.534 66.4042 122.477 66.3893 122.421 66.3745C122.628 66.3889 122.656 66.3963 122.508 66.3874C122.47 66.3775 122.108 66.3823 122.322 66.3686C122.558 66.3504 122.117 66.4248 122.063 66.4406C122.313 66.3661 122.094 66.3586 122.058 66.4593C122.2 66.3364 122.215 66.3201 122.11 66.4129C122.012 66.5176 122.02 66.4895 122.139 66.3404C121.512 67.1985 120.426 67.6248 119.443 67.0547C118.581 66.5567 118.082 65.2115 118.712 64.3441Z" fill="#4F5054"/>
<path d="M113.466 87.6118C113.753 87.9684 113.092 87.5435 113.554 87.6952C113.831 87.7881 114.105 87.8905 114.376 88.0021C115.062 88.2931 115.666 88.7431 116.031 89.4113C116.701 90.641 116.305 92.1421 115.301 93.0613C114.227 94.0525 112.746 94.2645 111.429 93.6666C110.229 93.1197 109.433 92.0272 108.84 90.8879C108.392 90.0374 108.57 89.2114 109.151 88.4916C109.717 87.7881 110.47 87.214 111.278 86.8148C112.265 86.3424 113.371 86.5635 113.98 87.5265C115.011 89.1726 114.437 91.2384 112.868 92.2799C111.98 92.8688 110.687 92.4478 110.166 91.5682C109.6 90.5963 109.988 89.4646 110.878 88.8663C110.719 88.9749 110.583 89.1097 110.571 89.3072C110.56 89.4647 110.781 89.844 110.569 89.5072C111.469 89.7445 112.37 89.9817 113.27 90.219C112.638 90.524 112.396 90.7209 111.939 91.2728C112.039 90.4764 112.148 89.6824 112.25 88.8766C112.516 89.3882 112.711 89.8307 113.091 90.1014C112.977 90.0011 113.014 90.011 113.21 90.1429C113.138 90.0738 113.044 90.049 112.934 90.05C112.816 90.0391 112.71 90.0613 112.613 90.1259C112.805 90.006 112.805 90.006 112.622 90.1284C112.361 90.6616 112.416 90.9471 112.704 91.4943C112.755 91.5679 112.832 91.6183 112.919 91.6311C112.79 91.5871 112.661 91.5431 112.532 91.4992C111.824 91.2526 111.134 90.9803 110.649 90.3812C109.973 89.5609 109.848 88.3945 110.654 87.5834C111.373 86.9101 112.782 86.7796 113.466 87.6118Z" fill="#4F5054"/>
<path d="M94.9438 89.2933C96.6588 88.9525 98.5697 89.5061 99.4981 91.085C100.436 92.6663 99.9845 94.6844 98.5493 95.7911C97.0523 96.9417 94.8772 96.6295 93.9004 94.9677C93.0248 93.493 93.3557 91.3229 94.9687 90.4937C95.8853 90.0229 97.1557 90.2271 97.6705 91.2055C98.1438 92.1127 97.944 93.4044 96.9588 93.9073C96.8072 93.9878 96.8071 93.9878 96.9543 93.8861C97.0728 93.817 97.1707 93.7123 97.2334 93.5884C97.2675 93.497 97.311 93.4082 97.3451 93.3168C97.3124 93.4788 97.303 93.4764 97.3406 93.2956C97.3594 93.11 97.3688 93.1124 97.3643 93.2818C97.356 93.1993 97.3501 93.1075 97.3323 93.0226C97.3934 93.3998 97.1388 92.6907 97.3417 93.025C97.2242 92.8235 97.0682 92.6921 96.848 92.614C96.7191 92.5701 96.2648 92.5808 96.5853 92.5448C96.5122 92.5557 95.9473 92.758 96.248 92.6065C96.1863 92.6504 96.1221 92.7038 96.0697 92.7502C96.1937 92.6223 96.2056 92.6154 96.1004 92.7482C95.8697 92.9382 96.2164 92.6885 96.1705 92.5961C96.1414 92.6687 96.1004 92.7482 96.0712 92.8208C96.1088 92.6401 96.1182 92.6425 96.0855 92.8045C96.0717 92.9714 96.0623 92.9689 96.0599 92.7877C96.0707 92.8607 96.0791 92.9432 96.0805 93.0139C96.1792 93.2104 96.1975 93.2553 96.1215 93.1249C96.043 93.0039 96.0756 93.0326 96.2074 93.2178C95.9161 92.9906 96.3728 93.3517 96.2054 93.1872C96.0356 93.0321 95.9433 93.078 96.2035 93.1566C96.0064 93.1047 95.7378 93.1343 96.117 93.1037C96.004 93.1141 95.5561 93.1766 96.002 93.0834C94.9946 93.2896 93.8195 92.7994 93.565 91.7091C93.3371 90.7461 93.8539 89.5078 94.9438 89.2933Z" fill="#4F5054"/>
<path d="M74.839 97.14C76.5575 96.7099 78.6797 96.9178 79.6896 98.5683C80.7824 100.361 79.6856 102.62 77.7463 103.203C75.8071 103.786 73.9335 102.329 73.9187 100.329C73.9117 98.6414 75.3516 96.9841 77.0966 97.0625C78.1266 97.1132 79.1308 97.9095 79.091 99.0126C79.0547 100.026 78.2392 101.066 77.141 101.007C76.981 101.005 76.9929 100.998 77.1791 100.977C77.3321 100.967 77.4645 100.922 77.5973 100.836C77.2773 101.023 77.9213 100.52 77.6591 100.792C77.7188 100.718 77.7786 100.643 77.8408 100.559C77.742 100.744 77.7593 100.678 77.8903 100.372C77.8586 100.454 77.8028 100.78 77.8448 100.43C77.8602 100.334 77.8592 100.223 77.8321 100.136C77.8592 100.223 77.6554 99.7781 77.5601 99.6828C77.3695 99.4921 77.0817 99.3661 76.8086 99.3744C76.5326 99.4321 76.4714 99.4361 76.6106 99.4025C76.7523 99.3596 76.6955 99.3848 76.4402 99.478C76.7716 99.3245 76.1779 99.7501 76.4452 99.4593C76.3879 99.5245 76.34 99.5921 76.2827 99.6573C76.1873 99.9431 76.1606 100.006 76.2002 99.8562C76.2397 99.7061 76.2318 99.7742 76.1621 100.077C76.2114 100.27 76.2701 100.467 76.3194 100.66C76.2089 100.471 76.2227 100.494 76.3821 100.727C76.4498 100.775 76.508 100.82 76.5732 100.877C76.2957 100.674 76.8951 100.912 76.5357 100.868C76.0493 100.81 76.9668 100.831 76.4582 100.857C76.2957 100.865 76.1451 100.865 75.9801 100.882C76.31 100.848 76.0601 100.883 75.8784 100.925C74.8799 101.174 73.694 100.611 73.4414 99.5508C73.2328 98.5528 73.7743 97.4113 74.839 97.14Z" fill="#4F5054"/>
<path d="M56.8682 112.421C56.633 111.295 56.5242 110.032 57.2192 109.032C57.6914 108.344 58.3636 107.848 59.2366 107.848C59.8391 107.846 60.4325 107.992 60.9653 108.293C62.8858 109.381 63.4475 112.238 61.6942 113.752C60.086 115.134 57.3288 114.9 56.3353 112.882C55.406 111.002 56.454 108.319 58.6357 107.92C59.6475 107.735 60.8112 108.192 61.0727 109.294C61.3006 110.257 60.7857 111.526 59.6983 111.731C59.1936 111.819 59.9028 111.565 59.6489 111.728C59.725 111.668 59.7986 111.617 59.8746 111.557C59.7339 111.711 59.7581 111.657 59.966 111.401C59.9206 111.459 59.8821 111.529 59.846 111.59C59.8801 111.498 59.9167 111.398 59.9601 111.309C59.931 111.381 59.9137 111.447 59.8939 111.522C59.9241 111.179 59.932 111.111 59.9152 111.327C59.9319 111.683 59.777 110.899 59.9043 111.254C59.7691 110.968 59.744 110.911 59.8476 111.089C59.7968 111.015 59.7365 110.939 59.6857 110.865C59.8392 111.006 59.7973 110.975 59.5504 110.769C59.7445 110.871 59.6813 110.844 59.3771 110.704C59.7168 110.823 58.9297 110.726 59.309 110.696C59.7282 110.666 58.8443 110.784 59.2665 110.705C59.465 110.637 59.4176 110.664 59.1198 110.766C59.2527 110.681 59.2502 110.69 59.1124 110.795C58.9722 110.908 58.9722 110.908 59.0818 110.797C58.8926 111.058 58.8615 111.1 58.9672 110.927C58.8832 111.055 58.8393 111.184 58.8397 111.335C58.8328 111.513 58.8209 111.52 58.8348 111.353C58.8944 111.66 58.8939 111.7 58.8471 111.497C58.9616 111.748 58.9961 111.807 58.9201 111.677C58.7089 111.26 59.1531 111.859 58.8831 111.627C59.1117 111.788 59.1606 111.831 59.0416 111.749C58.9902 111.715 58.9389 111.682 58.8757 111.655C58.9482 111.875 59.7521 111.756 59.1655 111.812C59.6267 111.622 60.0786 111.43 60.5423 111.231C60.409 111.357 60.3902 111.352 60.493 111.228C60.5789 111.131 60.6273 111.023 60.6501 110.899C60.5399 111.241 60.6156 110.649 60.6362 110.875C60.6535 111 60.647 111.139 60.6549 111.261C60.6402 110.936 60.6396 111.167 60.6889 111.36C60.9045 112.37 60.3956 113.54 59.3146 113.797C58.3117 114.025 57.0946 113.504 56.8682 112.421Z" fill="#4F5054"/>
<path d="M66.7091 91.6674C67.4305 91.7471 68.1159 91.8875 68.739 92.3024C69.5718 92.873 70.2817 93.682 70.1481 94.7604C70.0279 95.7119 69.3482 96.4258 68.4366 96.6873C67.2559 97.0183 66.0719 96.2951 65.7216 95.1494C65.4093 94.1642 66.0787 92.9561 67.096 92.7124C68.1651 92.4623 69.198 93.0354 69.533 94.0867C69.5374 94.108 69.5444 94.1198 69.5488 94.141C69.4802 93.9825 69.4185 93.8359 69.3499 93.6773C69.3568 93.6892 69.3731 93.7035 69.3776 93.7247C69.2734 93.5869 69.1762 93.461 69.072 93.3232C69.0883 93.3375 69.0977 93.34 69.114 93.3543C68.9812 93.2491 68.8484 93.1439 68.7062 93.0362C68.7249 93.0411 68.7318 93.053 68.7506 93.058C68.5867 92.9947 68.4252 92.9221 68.2613 92.8588C68.2801 92.8638 68.2988 92.8687 68.3082 92.8712C68.1344 92.8455 67.9581 92.8291 67.7843 92.8034C67.8218 92.8133 67.8525 92.8114 67.8949 92.8025C67.7275 92.8286 67.5601 92.8547 67.3833 92.8783C67.4258 92.8695 67.4589 92.8581 67.492 92.8468C67.3335 92.9154 67.1868 92.9771 67.0283 93.0457C67.0614 93.0343 67.0969 93.0136 67.1231 92.9904C66.9853 93.0946 66.8593 93.1918 66.7216 93.296C66.7359 93.2797 66.7477 93.2728 66.762 93.2565C66.6568 93.3893 66.5516 93.5221 66.4439 93.6643C66.4701 93.6411 66.4869 93.6154 66.4968 93.5779C66.4335 93.7418 66.3609 93.9032 66.2977 94.0672C66.3026 94.0484 66.3051 94.039 66.3007 94.0178C66.2749 94.1916 66.2586 94.3679 66.2329 94.5417C66.2284 94.5204 66.2309 94.5111 66.2265 94.4898C66.2526 94.6572 66.2787 94.8246 66.3024 95.0014C66.2979 94.9802 66.291 94.9683 66.2772 94.9446C66.443 95.2291 66.6158 95.5254 66.7816 95.8099C66.675 95.6814 66.5635 95.5718 66.4306 95.4666C66.5635 95.5718 66.6963 95.677 66.8384 95.7847C66.68 95.6627 66.5141 95.5688 66.3245 95.4888C66.4884 95.552 66.6499 95.6246 66.8138 95.6879C66.6592 95.6271 66.4998 95.5851 66.3353 95.5619C66.5091 95.5876 66.6854 95.6039 66.8592 95.6296C66.8286 95.6316 66.7911 95.6217 66.7605 95.6237C66.2153 95.5604 65.7438 95.4461 65.3395 95.0387C65.0072 94.7003 64.7412 94.1487 64.7591 93.6619C64.7751 93.1444 64.949 92.5983 65.3441 92.2409C65.6894 91.9205 66.2134 91.6071 66.7091 91.6674Z" fill="#4F5054"/>
<path d="M134.225 74.0082C133.123 71.9824 134.195 69.0544 136.592 68.6022C139.167 68.117 141.483 70.5629 140.839 73.122C140.192 75.6906 136.749 76.499 134.866 74.8093C133.026 73.1506 133.705 69.8883 135.998 69.0677C138.922 68.0221 141.375 72.0393 139.22 74.2006C138.486 74.9302 137.147 74.9886 136.422 74.1959C135.698 73.4031 135.648 72.186 136.427 71.3981C136.265 71.556 136.17 71.8019 136.151 72.0276C136.143 72.0957 136.194 72.5105 136.149 72.3782C136.088 72.1515 136.358 72.8044 136.153 72.4394C136.243 72.5935 136.357 72.6937 136.504 72.7827C136.27 72.6409 136.56 72.7975 136.654 72.8222C136.87 72.879 137.096 72.8584 137.299 72.7715C137.356 72.7464 137.679 72.5104 137.572 72.6126C137.384 72.7937 137.894 72.266 137.789 72.2082C137.789 72.2082 137.713 72.4591 137.722 72.4616C137.735 72.3747 137.748 72.2877 137.761 72.2008C137.765 72.3727 137.763 72.3821 137.746 72.2171C137.833 71.8488 137.651 72.463 137.712 72.1179C137.641 71.9687 137.65 71.9712 137.731 72.1228C137.678 72.0586 137.634 71.9968 137.58 71.9326C137.494 71.8398 137.294 71.7267 137.515 71.8753C137.443 71.8462 137.37 71.817 137.297 71.7879C137.478 71.8254 137.485 71.8373 137.323 71.8047C136.923 71.7996 137.613 71.7707 137.243 71.8037C136.977 71.8239 137.528 71.6378 137.094 71.8747C137.118 71.8609 137.345 71.7203 137.352 71.7321C137.285 71.6842 137.081 72.0017 137.052 72.0343C137.308 71.6704 136.983 72.2969 137.056 72.0555C137.115 71.8703 137.056 72.2861 137.046 72.3236C137.075 72.4816 137.068 72.4697 137.025 72.288C137.057 72.3567 137.082 72.4135 137.115 72.4821C136.961 72.3814 137.041 72.3823 137.175 72.5182C137.106 72.4396 136.847 72.2811 137.052 72.3754C137.347 72.5133 136.763 72.3695 137.12 72.4234C137.275 72.4842 137.263 72.491 137.087 72.4347C137.164 72.4451 137.24 72.4649 137.326 72.4777C137.468 72.4748 137.629 72.3968 137.416 72.4812C137.484 72.4491 137.907 72.1791 137.755 72.2996C137.655 72.3736 137.596 72.5588 137.679 72.3598C137.758 72.2502 137.769 72.2433 137.717 72.3297C137.642 72.4605 137.666 72.4067 137.77 72.1633C137.759 72.1702 137.692 72.4235 137.699 72.4354C137.659 72.3949 137.77 72.0127 137.738 72.3253C137.694 72.0729 137.688 72.021 137.73 72.1628C137.773 72.3045 137.758 72.2502 137.678 72.0186C138.17 72.9307 137.933 74.2126 136.966 74.7204C136.007 75.2001 134.754 74.9702 134.225 74.0082Z" fill="#4F5054"/>
<path d="M102.306 100.232C103.857 98.9151 105.76 98.3932 107.761 98.8302C108.541 98.9953 109.308 99.8897 109.232 100.712C109.105 102.184 108.815 103.743 107.674 104.797C106.584 105.814 104.98 106.153 103.601 105.559C102.122 104.929 101.385 103.27 101.802 101.725C102.175 100.348 103.305 99.3317 104.423 98.5528C105.307 97.9427 106.614 98.3875 107.125 99.2646C107.699 100.248 107.297 101.356 106.414 101.966C106.326 102.034 106.19 102.128 106.354 102.001C106.226 102.108 106.107 102.217 105.988 102.326C105.893 102.421 105.8 102.507 105.711 102.614C105.508 102.852 105.827 102.404 105.678 102.665C105.514 102.943 105.653 102.91 105.62 102.731C105.606 102.787 105.593 102.834 105.578 102.89C105.596 102.824 105.604 102.756 105.621 102.691C105.595 102.483 105.523 102.223 105.36 102.08C105.295 102.023 104.852 101.876 105.07 101.924C105.354 101.988 104.745 101.828 105.024 101.911C105.134 101.91 105.134 101.91 105.021 101.921C104.906 101.94 104.908 101.931 105.014 101.909C105.123 101.877 105.123 101.877 105.014 101.909C104.889 101.966 104.906 101.94 105.081 101.846C104.993 101.873 104.936 101.938 104.895 102.018C104.967 101.896 105.049 101.777 105.102 101.651C105.01 101.848 105.105 101.602 105.122 101.536C105.205 101.146 105.245 100.956 105.266 100.761C105.753 101.391 106.248 102.023 106.737 102.643C106.537 102.601 106.182 102.578 105.883 102.649C105.798 102.667 105.256 102.895 105.5 102.769C105.419 102.808 104.876 103.197 105.071 103.027C104.257 103.716 103.075 103.826 102.273 103.023C101.595 102.322 101.49 100.93 102.306 100.232Z" fill="#4F5054"/>
<path d="M119.457 49.4818C120.171 48.526 121.089 47.9351 122.302 47.8634C123.309 47.8078 124.368 48.2071 125.055 48.9499C125.687 49.6379 125.765 50.5213 125.369 51.3399C124.726 52.6355 123.364 53.3901 121.958 53.4713C120.715 53.545 119.649 52.1809 120.022 50.9949C120.372 49.8934 121.14 48.9218 122.402 48.8929C123.63 48.8755 124.778 49.85 124.762 51.1299C124.744 52.5298 123.417 53.4943 122.075 53.1809C120.667 52.8502 120.091 51.304 120.728 50.0672C121.201 49.1484 122.558 48.7937 123.424 49.3529C124.36 49.9507 124.647 51.0697 124.138 52.0492C124.133 52.068 124.119 52.0843 124.114 52.103C124.177 51.5979 124.242 51.0834 124.305 50.5782C124.31 50.5995 124.307 50.6088 124.312 50.6301C124.146 50.3456 123.973 50.0493 123.807 49.7648C123.263 49.6215 122.719 49.4782 122.172 49.3442C121.888 49.5101 121.591 49.6828 121.307 49.8486C121.321 49.8323 121.343 49.8279 121.357 49.8116C121.188 50.1084 121.011 50.4026 120.84 50.7087C120.826 50.8356 120.806 50.9506 120.793 51.0775C120.878 51.401 120.973 51.7269 121.058 52.0504C121.634 52.3024 122.219 52.5568 122.795 52.8088C123.079 52.643 123.375 52.4702 123.66 52.3044C123.488 52.4599 123.503 52.4036 123.707 52.1261C123.871 51.8082 123.902 51.7662 123.821 51.9958C123.175 51.1735 122.532 50.3418 121.885 49.5194C122.314 49.4919 121.519 49.6536 121.912 49.4962C121.682 49.6063 121.628 49.6221 121.755 49.5555C121.815 49.5209 121.874 49.4863 121.933 49.4518C121.872 49.4957 121.807 49.549 121.746 49.593C121.812 49.5303 121.879 49.4676 121.936 49.4024C121.888 49.4701 121.833 49.5258 121.786 49.5935C121.836 49.5164 121.877 49.437 121.918 49.3575C122.018 50.1565 122.122 50.9461 122.231 51.7475C122.036 51.5356 122.32 51.831 122.39 51.8295C122.4 51.832 121.948 51.6028 122.335 51.7747C122.641 51.9056 122.388 51.7989 122.311 51.7885C122.066 51.7642 122.847 51.8494 122.445 51.8138C122.16 51.789 122.579 51.839 122.615 51.7782C122.612 51.7876 122.407 51.8438 122.397 51.8414C122.487 51.8049 122.565 51.7753 122.655 51.7387C122.522 51.8241 122.525 51.8147 122.663 51.7106C122.779 51.6109 122.805 51.5877 122.736 51.6597C122.629 51.7619 122.674 51.7037 122.866 51.4731C122.248 52.2937 121.129 52.8113 120.169 52.1874C119.355 51.6618 118.801 50.3724 119.457 49.4818Z" fill="#4F5054"/>
<path d="M134.811 56.3954C135.556 54.214 138.113 53.0014 140.189 54.2606C142.134 55.4452 142.429 58.4021 140.776 59.9532C139.097 61.5274 135.989 60.9894 135.305 58.6723C134.675 56.5301 136.788 54.1071 139.017 54.8247C139.999 55.1335 140.755 56.1855 140.427 57.2427C140.118 58.2247 139.066 58.9809 138.009 58.6523C137.774 58.5905 137.847 58.5797 138.221 58.6079C138.43 58.6529 138.621 58.613 138.792 58.4975C139.001 58.3118 139.051 58.2748 138.944 58.377C138.837 58.4792 138.88 58.4303 139.054 58.2254C138.868 58.4772 139.098 58.0966 139.117 57.9509C139.143 57.7371 139.101 57.5154 138.979 57.3326C138.838 57.105 138.66 57.018 138.433 56.9281C138.899 57.101 138.011 56.7768 138.482 56.931C138.409 56.9419 138.336 56.9527 138.266 56.9542C138.44 56.8999 138.452 56.893 138.308 56.9453C138.202 56.9675 138.114 57.0347 138.042 57.1161C137.91 57.3121 137.889 57.3566 137.963 57.2257C138.074 56.9942 137.818 57.5886 137.954 57.2233C137.93 57.4677 137.915 57.524 137.914 57.3733C137.911 57.2321 137.92 57.2746 137.941 57.5007C137.807 57.1343 138.174 57.7225 137.907 57.4015C137.96 57.4657 138.312 57.729 138.135 57.642C137.95 57.5432 138.393 57.69 138.47 57.7004C137.949 57.6232 138.863 57.7335 138.345 57.7176C138.539 57.6283 138.57 57.6263 138.442 57.693C138.321 57.7714 138.347 57.7483 138.521 57.6234C138.273 57.8391 138.569 57.5557 138.62 57.3987C138.283 58.3734 137.278 59.142 136.202 58.8084C135.248 58.5069 134.445 57.4426 134.811 56.3954Z" fill="#4F5054"/>
<path d="M121.643 98.2733C123.337 98.0476 125.321 98.6302 126.24 100.167C127.093 101.575 126.873 103.514 125.671 104.652C124.268 105.978 122.08 105.562 121.16 103.915C120.301 102.374 120.876 100.118 122.749 99.7085C123.762 99.4836 124.929 100.002 125.186 101.083C125.416 102.076 124.89 103.272 123.812 103.52C123.595 103.583 123.659 103.53 124.011 103.372C124.234 103.29 124.4 103.153 124.525 102.945C124.571 102.847 124.619 102.739 124.665 102.641C124.693 102.307 124.708 102.211 124.716 102.374C124.715 102.604 124.613 101.925 124.72 102.244C124.591 101.97 124.569 101.903 124.645 102.034C124.721 102.164 124.677 102.102 124.501 101.855C124.169 101.517 123.554 101.415 123.146 101.669C122.936 101.855 122.877 101.889 122.984 101.787C123.082 101.682 123.048 101.734 122.862 101.945C123.068 101.659 122.774 102.243 122.833 102.018C122.892 101.793 122.843 102.512 122.825 102.086C122.811 101.721 122.892 102.365 122.834 102.129C122.766 101.89 122.963 102.514 122.843 102.171C122.977 102.347 122.998 102.382 122.896 102.275C122.791 102.178 122.807 102.192 122.954 102.321C122.6 102.177 123.126 102.316 122.886 102.273C122.743 102.245 122.596 102.196 122.452 102.169C122.868 102.228 122.306 102.19 122.247 102.185C122.066 102.187 121.889 102.211 121.703 102.232C120.673 102.372 119.673 101.256 119.709 100.282C119.731 99.094 120.539 98.4241 121.643 98.2733Z" fill="#4F5054"/>
<path d="M118.048 79.4688C119.355 76.9838 123.262 76.8896 124.693 79.3031C126.134 81.7191 124.039 85.2906 121.162 85.0144C120.281 84.9327 119.489 84.4732 119.237 83.5641C118.715 81.6609 119.257 79.5663 120.714 78.2246C121.497 77.4979 122.733 77.4523 123.511 78.2293C124.241 78.9632 124.293 80.291 123.507 81.0271C122.99 81.503 122.861 81.8802 123.046 82.5108C122.4 82.0297 121.764 81.5511 121.12 81.0606C121.139 81.0655 121.435 81.0834 121.438 81.074C121.439 80.994 120.904 81.2343 121.129 81.143C121.386 81.0403 120.879 81.3281 121.109 81.1781C121.157 81.1504 121.365 80.8942 121.214 81.0853C121.047 81.302 121.284 80.9332 121.308 80.8794C121.241 81.022 121.152 81.1292 121.259 80.9164C121.193 81.0497 121.257 81.227 121.223 80.9771C121.233 81.0502 121.374 81.4685 121.282 81.2838C121.195 81.1203 121.401 81.4053 121.438 81.4552C121.549 81.5648 121.329 81.4868 121.501 81.4819C121.734 81.473 121.421 81.4808 121.311 81.4418C121.442 81.4764 121.632 81.5164 121.383 81.4709C121.153 81.4304 121.295 81.5381 121.435 81.4646C121.189 81.6003 121.43 81.4833 121.476 81.425C121.198 81.7933 121.618 81.1915 121.457 81.4201C121.296 81.6487 121.695 81.0113 121.471 81.4438C120.972 82.3858 119.662 82.6729 118.775 82.1581C117.805 81.6117 117.547 80.4202 118.048 79.4688Z" fill="#4F5054"/>
<path d="M137.983 39.9751C140.843 40.4677 142.932 43.1248 143.004 45.973C143.038 47.2159 141.745 48.2797 140.528 47.909C138.079 47.1534 136.42 45.0312 136.314 42.4649C136.283 41.7844 136.694 41.0602 137.291 40.7359C138.483 40.0967 139.931 40.0467 141.078 40.8307C141.953 41.4323 142.37 42.5553 141.793 43.527C141.16 44.5944 140.203 45.3353 139.001 45.6708C136.548 46.3387 135.485 42.5274 137.938 41.8594C138.219 41.7829 138.226 41.7948 138.373 41.5425C138.609 42.4373 138.851 43.344 139.087 44.2388C138.672 43.9488 139.049 44.2689 139.274 44.1376C139.597 43.5605 139.929 42.9858 140.251 42.4086C140.284 43.1997 140.821 43.863 141.527 44.0789C140.705 44.7251 139.873 45.3688 139.051 46.015C139.019 44.8027 138.1 43.9887 136.977 43.7934C135.921 43.6154 135.311 42.3511 135.568 41.3754C135.859 40.2684 136.929 39.7877 137.983 39.9751Z" fill="#4F5054"/>
<path d="M136.983 85.8911C139.429 85.6325 141.62 88.4368 140.741 90.7436C140.423 91.5726 139.786 92.1975 138.859 92.2141C135.966 92.2647 133.944 89.5449 134.426 86.8025C134.626 85.6614 135.855 85.2627 136.844 85.3929C139.049 85.703 140.742 87.8845 140.689 90.0675C140.658 91.3637 139.484 92.3184 138.212 92.0036C135.744 91.3936 134.366 88.9337 134.815 86.5038C135.002 85.4896 136.268 84.7996 137.233 85.0942C138.319 85.4302 138.84 86.4204 138.643 87.5121C138.674 87.3196 138.655 87.3146 138.652 87.5146C138.655 87.6958 138.692 87.7057 138.638 87.5309C138.667 87.6489 138.699 87.7576 138.74 87.8687C138.637 87.6109 138.75 87.8312 138.816 87.9591C138.964 88.1986 138.633 87.7803 138.833 87.9734C138.865 88.0021 139.138 88.2243 138.958 88.1067C138.781 87.9798 139.094 88.1626 139.126 88.1913C139.35 88.3306 138.735 88.0781 139.216 88.1947C138.393 88.8409 137.562 89.4846 136.739 90.1308C136.741 90.0108 136.74 89.9001 136.732 89.7777C136.765 90.1475 136.701 89.7796 136.674 89.6922C136.583 89.4275 136.808 89.908 136.658 89.6779C136.6 89.5924 136.366 89.3401 136.603 89.5831C136.524 89.5021 136.435 89.4186 136.356 89.3376C136.503 89.4665 136.492 89.4334 136.335 89.342C136.022 89.1592 136.469 89.3273 136.265 89.3035C136.129 89.2877 135.981 89.2387 135.835 89.2204C136.641 88.7505 137.447 88.2807 138.253 87.8108C138.325 87.3881 138.264 87.7332 138.283 87.8488C138.296 87.9925 138.284 87.9594 138.271 87.7451C138.286 87.7994 138.302 87.8538 138.311 87.8962C138.357 87.798 138.168 87.6379 138.348 87.9461C138.422 88.0859 138.62 88.2084 138.383 88.0054C138.467 88.0676 138.543 88.158 138.613 88.2366C138.327 87.9506 138.556 88.2217 138.681 88.2445C138.911 88.285 138.351 88.1274 138.718 88.2543C139.096 88.3838 138.396 88.2597 138.838 88.2558C138.209 88.7421 137.577 89.2377 136.956 89.7264C137.119 89.2978 136.999 89.5269 137.053 89.8523C136.988 89.6444 137.007 89.6493 137.098 89.874C137.052 89.7817 136.997 89.6869 136.939 89.6015C137.089 89.7916 137.085 89.8103 136.936 89.6508C137.136 89.8039 137.143 89.8158 136.952 89.7051C137.258 89.8361 137.534 89.7784 137.07 89.8267C136.038 89.936 135.035 88.8692 135.076 87.8767C135.076 86.733 135.89 86.0044 136.983 85.8911Z" fill="#4F5054"/>
<path d="M154.194 52.131C153.947 51.3937 153.936 50.5582 154.209 49.8275C154.508 49.0336 155.176 48.3266 156.091 48.357C159.02 48.4362 160.813 52.3297 158.56 54.445C156.362 56.5046 152.709 54.529 152.719 51.6724C152.721 50.0676 154.069 48.5668 155.716 48.5993C157.292 48.6333 158.685 49.9733 158.761 51.5485C158.841 53.1143 157.651 54.5465 156.163 54.9372C154.558 55.357 152.96 54.6451 151.849 53.4898C150.084 51.6604 152.877 48.8648 154.652 50.6967C154.708 50.7515 155.222 51.238 155.232 51.1205C155.25 51.0148 154.903 51.3446 154.883 51.3797C154.743 51.6438 154.855 52.1346 155.09 52.347C155.325 52.5594 155.523 52.4913 155.837 52.4435C156.483 52.3528 156.509 52.179 156.678 51.6117C156.624 51.3969 156.613 51.3638 156.656 51.5055C156.692 51.6354 156.678 51.6117 156.619 51.4157C156.58 51.3752 156.54 51.3346 156.503 51.2848C156.648 51.423 156.661 51.4468 156.545 51.3559C156.426 51.2744 156.452 51.2912 156.615 51.3944C156.552 51.3677 156.496 51.3529 156.432 51.3262C156.489 51.341 156.536 51.3534 156.592 51.3682C156.491 51.3317 156.392 51.3257 156.296 51.3504C156.066 51.4204 155.806 51.5325 155.686 51.7615C155.633 51.8479 155.608 51.9417 155.623 52.0361C155.624 52.1867 155.619 52.1655 155.624 51.9561C155.631 52.008 155.647 52.0622 155.653 52.1141C155.594 51.918 155.583 51.885 155.64 52.0104C155.686 52.1028 155.677 52.1003 155.621 52.0055C155.543 51.8845 155.559 51.8988 155.665 52.0672C155.834 52.1517 155.943 52.2707 156.161 52.2782C156.791 51.792 157.423 51.2963 158.044 50.8076C157.9 51.2012 157.876 50.6432 158.013 51.0402C158.348 52.0516 157.635 53.198 156.638 53.4772C155.559 53.8048 154.536 53.1543 154.194 52.131Z" fill="#4F5054"/>
<path d="M148.213 71.2528C150.153 70.2489 152.694 70.848 153.742 72.8497C154.746 74.7495 153.858 77.2444 151.957 78.1782C149.85 79.2082 147.253 77.9824 146.587 75.7503C146.278 74.7157 146.431 73.6023 147.012 72.6919C147.717 71.5736 148.839 71.0465 150.108 70.879C151.166 70.7464 152.098 71.8547 152.102 72.829C152.116 73.9963 151.21 74.6908 150.152 74.8234C150.381 74.7933 150.455 74.7025 150.243 74.8575C150.445 74.7 150.383 74.5934 150.321 74.8279C150.378 74.6521 150.392 74.6358 150.355 74.7766C150.315 74.9267 150.323 74.8985 150.368 74.6896C150.328 74.4985 150.326 74.4679 150.359 74.6071C150.405 74.7395 150.391 74.7158 150.327 74.5385C150.433 74.7069 150.447 74.7306 150.376 74.6215C150.295 74.5099 150.318 74.5361 150.45 74.6813C150.289 74.5687 150.273 74.5543 150.394 74.6264C150.525 74.701 150.488 74.6911 150.301 74.6017C150.5 74.6442 150.526 74.661 150.373 74.6309C150.289 74.6086 150.197 74.6145 150.116 74.6535C150.303 74.5924 150.331 74.5997 150.199 74.6451C150.074 74.7024 150.088 74.6861 150.261 74.6012C150.211 74.6382 150.163 74.6659 150.123 74.7054C150.276 74.5449 150.285 74.5474 150.134 74.7384C150.165 74.6965 150.19 74.6427 150.221 74.6007C150.324 74.3973 150.322 74.4066 150.213 74.6288C150.228 74.5725 150.24 74.5256 150.255 74.4694C150.229 74.7232 150.226 74.7326 150.227 74.502C150.231 74.5632 150.244 74.6269 150.25 74.6787C150.185 74.4708 150.187 74.4615 150.253 74.6694C150.283 74.7074 150.322 74.7479 150.35 74.7953C150.18 74.6402 150.192 74.6333 150.367 74.7696C150.315 74.736 150.271 74.7143 150.22 74.6807C150.424 74.7445 150.449 74.7612 150.311 74.7148C150.229 74.6831 150.145 74.6609 150.058 74.648C150.262 74.6718 150.3 74.6817 150.152 74.6728C150.01 74.6757 150.032 74.6713 150.227 74.6526C150.01 74.7157 150.01 74.7157 150.208 74.6476C149.266 75.1417 148.069 74.8866 147.506 73.9359C146.983 73.0657 147.261 71.7444 148.213 71.2528Z" fill="#4F5054"/>
</svg>
