<svg width="20" height="21" viewBox="0 0 20 21" fill="none" xmlns="http://www.w3.org/2000/svg">
<path d="M12.094 13.612C11.646 14.06 10.6861 14.2199 10.0021 14.2199C9.31602 14.2199 8.35807 14.06 7.91007 13.612C7.80402 13.506 7.63404 13.506 7.52814 13.612C7.4221 13.7181 7.4221 13.888 7.52814 13.9939C8.23814 14.7039 9.60212 14.7599 10.0021 14.7599C10.402 14.7599 11.764 14.7039 12.4761 13.9939C12.58 13.8879 12.58 13.7179 12.4761 13.612C12.3701 13.506 12.2001 13.506 12.094 13.612Z" fill="white"/>
<path d="M8.74994 11.242C8.74994 10.6679 8.28195 10.2 7.70792 10.2C7.13403 10.2 6.66589 10.6679 6.66589 11.242C6.66589 11.8159 7.13403 12.284 7.70792 12.284C8.28195 12.284 8.74994 11.816 8.74994 11.242Z" fill="white"/>
<path d="M10 0.200195C4.478 0.200195 0 4.67819 0 10.2002C0 15.7222 4.478 20.2002 10 20.2002C15.522 20.2002 20 15.7222 20 10.2002C20 4.67819 15.522 0.200195 10 0.200195ZM15.802 11.5341C15.824 11.6782 15.836 11.8242 15.836 11.9722C15.836 14.2162 13.224 16.0342 10.002 16.0342C6.77994 16.0342 4.16794 14.2162 4.16794 11.9722C4.16794 11.8222 4.17999 11.6742 4.20197 11.5302C3.694 11.3022 3.34 10.7922 3.34 10.2002C3.34 9.39621 3.992 8.74222 4.79797 8.74222C5.18997 8.74222 5.54398 8.89618 5.80597 9.14825C6.81793 8.41827 8.21808 7.95212 9.776 7.91214C9.776 7.89215 10.504 4.42413 10.504 4.42413C10.518 4.35623 10.558 4.2981 10.616 4.26025C10.674 4.22226 10.744 4.21021 10.8121 4.22424L13.2361 4.74014C13.4061 4.39621 13.756 4.15817 14.166 4.15817C14.742 4.15817 15.208 4.62418 15.208 5.2002C15.208 5.77621 14.742 6.24222 14.166 6.24222C13.6079 6.24222 13.156 5.80215 13.13 5.25024L10.9599 4.78821L10.296 7.91428C11.826 7.96814 13.2001 8.43216 14.196 9.15222C14.458 8.89832 14.814 8.74222 15.208 8.74222C16.0141 8.74222 16.666 9.39423 16.666 10.2002C16.666 10.7962 16.308 11.3062 15.802 11.5341Z" fill="white"/>
<path d="M12.292 10.2C11.718 10.2 11.25 10.6679 11.25 11.242C11.25 11.8159 11.718 12.284 12.292 12.284C12.8659 12.284 13.334 11.8159 13.334 11.242C13.334 10.6679 12.8661 10.2 12.292 10.2Z" fill="white"/>
</svg>
