<svg width="13" height="13" viewBox="0 0 13 13" fill="none" xmlns="http://www.w3.org/2000/svg">
<path d="M6.24154 10.4106L3.28633 12.2829C2.90858 12.5222 2.43958 12.1663 2.55168 11.7253L3.4055 8.3666C3.42954 8.27305 3.42669 8.17461 3.39728 8.08261C3.36787 7.99061 3.31309 7.90878 3.23924 7.84653L0.589198 5.64085C0.240994 5.35104 0.420716 4.77315 0.868084 4.74412L4.32886 4.51951C4.42207 4.51285 4.51148 4.47985 4.58667 4.42435C4.66185 4.36884 4.71972 4.29312 4.75354 4.206L6.04426 0.955631C6.07935 0.863162 6.14173 0.783552 6.22313 0.727376C6.30453 0.671199 6.40109 0.641113 6.5 0.641113C6.5989 0.641113 6.69546 0.671199 6.77686 0.727376C6.85826 0.783552 6.92064 0.863162 6.95573 0.955631L8.24645 4.206C8.28027 4.29312 8.33814 4.36884 8.41333 4.42435C8.48851 4.47985 8.57792 4.51285 8.67114 4.51951L12.1319 4.74412C12.5793 4.77315 12.759 5.35104 12.4108 5.64085L9.76076 7.84653C9.68691 7.90878 9.63213 7.99061 9.60271 8.08261C9.5733 8.17461 9.57045 8.27305 9.5945 8.3666L10.3863 11.4814C10.5208 12.0106 9.95803 12.4377 9.50473 12.1505L6.75846 10.4106C6.68122 10.3614 6.59156 10.3353 6.5 10.3353C6.40844 10.3353 6.31878 10.3614 6.24154 10.4106V10.4106Z" fill="#4F5054"/>
</svg>
