<svg width="20" height="21" viewBox="0 0 20 21" fill="none" xmlns="http://www.w3.org/2000/svg">
<path d="M10 0.200195C4.478 0.200195 0 4.67819 0 10.2002C0 15.7222 4.478 20.2002 10 20.2002C15.522 20.2002 20 15.7222 20 10.2002C20 4.67819 15.522 0.200195 10 0.200195ZM14.5659 7.99713C14.5703 8.09555 14.5724 8.19443 14.5724 8.29376C14.5724 11.3268 12.2638 14.8242 8.04184 14.8244H8.04199H8.04184C6.74561 14.8244 5.5394 14.4444 4.52362 13.7933C4.70322 13.8145 4.88602 13.8251 5.07111 13.8251C6.14655 13.8251 7.13623 13.4583 7.92191 12.8426C6.91711 12.8239 6.06995 12.1603 5.77759 11.2483C5.91751 11.2752 6.0614 11.2898 6.20895 11.2898C6.41846 11.2898 6.6214 11.2616 6.81427 11.209C5.76401 10.9987 4.97284 10.0705 4.97284 8.95905C4.97284 8.94867 4.97284 8.93936 4.97314 8.92975C5.28244 9.10172 5.63614 9.20517 6.01273 9.21677C5.39642 8.80554 4.9913 8.10257 4.9913 7.30621C4.9913 6.88568 5.10498 6.4917 5.30212 6.1525C6.43402 7.54135 8.12561 8.45474 10.0333 8.55072C9.9939 8.38257 9.9736 8.2074 9.9736 8.02734C9.9736 6.76025 11.0016 5.73227 12.2691 5.73227C12.9294 5.73227 13.5257 6.01135 13.9445 6.45752C14.4675 6.35437 14.9585 6.16333 15.4021 5.90042C15.2304 6.43616 14.8666 6.88568 14.3927 7.16995C14.857 7.11441 15.2995 6.99127 15.7108 6.80847C15.4036 7.26883 15.014 7.67319 14.5659 7.99713Z" fill="white"/>
</svg>
