<svg width="50" height="38" viewBox="0 0 50 38" fill="none" xmlns="http://www.w3.org/2000/svg">
<path d="M7.8403 5.27235H42.1595V30.7666H7.8403V5.27235Z" fill="#008F67"/>
<path d="M49.0234 29.7901H47.0583V1.3502C47.0583 0.810947 46.621 0.373642 46.0817 0.373642H3.91826C3.37891 0.373642 2.9417 0.810947 2.9417 1.3502V29.7901H0.976562C0.437207 29.7901 0 30.2274 0 30.7666C0 34.549 3.07734 37.6264 6.85986 37.6264H43.1401C46.9227 37.6264 50 34.549 50 30.7666C50 30.2274 49.5627 29.7901 49.0234 29.7901ZM4.89482 2.32677H45.1052V29.7901H4.89482V2.32677ZM43.1401 35.6733H6.85986C4.48848 35.6733 2.50469 33.9826 2.05068 31.7432H47.9492C47.4953 33.9826 45.5115 35.6733 43.1401 35.6733Z" fill="#D5EFE9"/>
<path d="M38.2372 23.9147H15.3318V22.9381C15.3318 22.3988 14.8946 21.9615 14.3552 21.9615C13.8159 21.9615 13.3787 22.3988 13.3787 22.9381V23.9147H11.7624C11.223 23.9147 10.7858 24.352 10.7858 24.8912C10.7858 25.4305 11.223 25.8678 11.7624 25.8678H13.3787V26.8443C13.3787 27.3836 13.8159 27.8209 14.3552 27.8209C14.8946 27.8209 15.3318 27.3836 15.3318 26.8443V25.8678H38.2372C38.7765 25.8678 39.2137 25.4305 39.2137 24.8912C39.2137 24.352 38.7765 23.9147 38.2372 23.9147Z" fill="#D5EFE9"/>
<path d="M21.2137 20.3814L30.7541 15.93C31.0924 15.7722 31.3111 15.4353 31.3177 15.062C31.3241 14.6888 31.1174 14.3445 30.7848 14.1749L21.2443 9.31096C20.5955 8.9805 19.8242 9.45217 19.8242 10.181V19.4963C19.8242 20.2091 20.5664 20.683 21.2137 20.3814ZM21.7773 11.7751L28.1149 15.0061L21.7773 17.963V11.7751Z" fill="#D5EFE9"/>
</svg>
