<svg width="50" height="46" viewBox="0 0 50 46" fill="none" xmlns="http://www.w3.org/2000/svg">
<path d="M49.0234 25.8936V30.2432C49.0234 32.1885 47.4424 33.7666 45.4932 33.7666H4.50684C2.55762 33.7666 0.976562 32.1885 0.976562 30.2432V25.8936H49.0234Z" fill="#008F67"/>
<path d="M45.1017 28.875C44.5786 28.875 44.1252 29.3308 44.1252 29.8515C44.1252 30.3691 44.5627 30.8281 45.1017 30.8281C45.6342 30.8281 46.0782 30.384 46.0783 29.8516C46.0784 29.3442 45.6294 28.8751 45.1017 28.875Z" fill="#D5EFE9"/>
<path d="M45.4932 0.490234H4.50684C2.02178 0.490234 0 2.50889 0 4.99023V30.2432C0 32.7245 2.02178 34.7432 4.50684 34.7432H20.8644L18.0602 39.6415H17.6458C14.9446 39.6415 12.7472 41.8359 12.7472 44.5332C12.7472 45.0726 13.1844 45.5098 13.7237 45.5098H36.2782C36.8438 45.5098 37.2924 45.0305 37.2523 44.4637C37.2149 41.7983 35.032 39.6416 32.3542 39.6416H31.9398L29.1356 34.7433H45.4932C47.9782 34.7433 50 32.7246 50 30.2433V4.99023C50 2.50889 47.9782 0.490234 45.4932 0.490234ZM32.3542 41.5946C33.6354 41.5946 34.7281 42.4148 35.1325 43.5566H14.8675C15.2719 42.4149 16.3646 41.5946 17.6458 41.5946H32.3542ZM29.6893 39.6415H20.3107L23.1149 34.7432H26.8851L29.6893 39.6415ZM48.0469 30.2432C48.0469 31.6476 46.9013 32.79 45.4932 32.79H4.50684C3.09873 32.79 1.95312 31.6476 1.95312 30.2432V4.99023C1.95312 3.58584 3.09873 2.44336 4.50684 2.44336H45.4932C46.9013 2.44336 48.0469 3.58584 48.0469 4.99023V30.2432Z" fill="#D5EFE9"/>
<path d="M29.4126 28.8749H20.5877C20.0484 28.8749 19.6111 29.3121 19.6111 29.8515C19.6111 30.3908 20.0484 30.828 20.5877 30.828H29.4126C29.952 30.828 30.3892 30.3908 30.3892 29.8515C30.3892 29.3121 29.9519 28.8749 29.4126 28.8749Z" fill="#D5EFE9"/>
<path d="M41.1788 28.875C40.6465 28.875 40.2023 29.3191 40.2022 29.8514C40.2021 30.3757 40.6564 30.8281 41.1787 30.8281C41.6918 30.8282 42.1554 30.3862 42.1554 29.8515C42.1554 29.3342 41.7174 28.875 41.1788 28.875Z" fill="#D5EFE9"/>
<path d="M24.5057 20.0167V11.1697C24.5057 9.55426 23.1914 8.24 21.576 8.24H19.6029V6.68229C19.6029 5.3775 18.5417 4.31598 17.2372 4.31598H11.1904C9.88604 4.31598 8.82471 5.3775 8.82471 6.68229V8.24H6.85176C5.23633 8.24 3.92207 9.55426 3.92207 11.1697V20.0167C3.92207 21.6321 5.23633 22.9464 6.85176 22.9464H21.576C23.1914 22.9464 24.5057 21.6321 24.5057 20.0167ZM10.7779 6.68229C10.7779 6.45446 10.963 6.2691 11.1905 6.2691H17.2373C17.4648 6.2691 17.6499 6.45446 17.6499 6.68229V8.24H10.778V6.68229H10.7779ZM5.8752 11.1697C5.8752 10.6312 6.31328 10.1931 6.85176 10.1931H21.576C22.1145 10.1931 22.5525 10.6312 22.5525 11.1697V14.126H15.1904V13.1406C15.1904 12.6012 14.7532 12.164 14.2139 12.164C13.6745 12.164 13.2373 12.6012 13.2373 13.1406V14.126H5.8752V11.1697ZM5.8752 20.0167V16.0793H13.2373V17.0647C13.2373 17.6041 13.6745 18.0413 14.2139 18.0413C14.7532 18.0413 15.1904 17.6041 15.1904 17.0647V16.0793H22.5525V20.0167C22.5525 20.5551 22.1145 20.9932 21.576 20.9932H6.85176C6.31328 20.9932 5.8752 20.5551 5.8752 20.0167Z" fill="#D5EFE9"/>
<path d="M33.3345 7.25021H44.1205C44.6599 7.25021 45.0971 6.81301 45.0971 6.27365C45.0971 5.7343 44.6599 5.29709 44.1205 5.29709H33.3345C32.7951 5.29709 32.3579 5.7343 32.3579 6.27365C32.3579 6.81301 32.7951 7.25021 33.3345 7.25021Z" fill="#D5EFE9"/>
<path d="M28.4315 7.25003C28.9593 7.25003 29.408 6.79857 29.4081 6.27357C29.4082 5.74192 28.9627 5.297 28.4316 5.29691C27.9222 5.29681 27.455 5.74046 27.455 6.27337C27.4549 6.78265 27.8996 7.24993 28.4315 7.25003Z" fill="#D5EFE9"/>
<path d="M33.3345 12.1552H44.1205C44.6599 12.1552 45.0971 11.718 45.0971 11.1787C45.0971 10.6393 44.6599 10.2021 44.1205 10.2021H33.3345C32.7951 10.2021 32.3579 10.6393 32.3579 11.1787C32.3579 11.718 32.7951 12.1552 33.3345 12.1552Z" fill="#D5EFE9"/>
<path d="M28.4315 12.1553C28.9649 12.1553 29.408 11.7122 29.4081 11.1788C29.4082 10.6702 28.9626 10.2022 28.4316 10.2021C27.9225 10.202 27.455 10.6478 27.455 11.1786C27.455 11.7103 27.9007 12.1552 28.4315 12.1553Z" fill="#D5EFE9"/>
<path d="M33.3345 17.0604H44.1205C44.6599 17.0604 45.0971 16.6232 45.0971 16.0838C45.0971 15.5444 44.6599 15.1072 44.1205 15.1072H33.3345C32.7951 15.1072 32.3579 15.5444 32.3579 16.0838C32.3579 16.6232 32.7951 17.0604 33.3345 17.0604Z" fill="#D5EFE9"/>
<path d="M28.4315 17.0605C28.963 17.0605 29.408 16.6143 29.4081 16.0841C29.4082 15.5508 28.964 15.1075 28.4316 15.1074C27.8988 15.1074 27.4551 15.5512 27.455 16.0839C27.4549 16.5939 27.8993 17.0604 28.4315 17.0605Z" fill="#D5EFE9"/>
<path d="M45.0971 20.9889C45.0971 20.4495 44.6599 20.0123 44.1205 20.0123H33.3345C32.7951 20.0123 32.3579 20.4495 32.3579 20.9889C32.3579 21.5282 32.7951 21.9654 33.3345 21.9654H44.1205C44.6599 21.9654 45.0971 21.5282 45.0971 20.9889Z" fill="#D5EFE9"/>
<path d="M28.4315 21.9658C28.9539 21.9658 29.408 21.5092 29.4081 20.9894C29.4082 20.459 28.9592 20.0128 28.4316 20.0127C27.8983 20.0127 27.4551 20.4553 27.455 20.9891C27.4549 21.505 27.8905 21.9657 28.4315 21.9658Z" fill="#D5EFE9"/>
</svg>
