<svg width="20" height="21" viewBox="0 0 20 21" fill="none" xmlns="http://www.w3.org/2000/svg">
<path d="M8.75452 12.0735L12.0074 10.2L8.75452 8.32654V12.0735Z" fill="white"/>
<path d="M10 0.200195C4.478 0.200195 0 4.67819 0 10.2002C0 15.7222 4.478 20.2002 10 20.2002C15.522 20.2002 20 15.7222 20 10.2002C20 4.67819 15.522 0.200195 10 0.200195ZM16.2485 10.2104C16.2485 10.2104 16.2485 12.2385 15.9912 13.2164C15.847 13.7517 15.425 14.1737 14.8897 14.3178C13.9117 14.5752 10 14.5752 10 14.5752C10 14.5752 6.09848 14.5752 5.11032 14.3076C4.57504 14.1635 4.15298 13.7413 4.00879 13.206C3.75137 12.2385 3.75137 10.2002 3.75137 10.2002C3.75137 10.2002 3.75137 8.1723 4.00879 7.19437C4.15283 6.65909 4.58527 6.22665 5.11032 6.08261C6.08826 5.8252 10 5.8252 10 5.8252C10 5.8252 13.9117 5.8252 14.8897 6.09283C15.425 6.23688 15.847 6.65909 15.9912 7.19437C16.2589 8.1723 16.2485 10.2104 16.2485 10.2104Z" fill="white"/>
</svg>
